<?xml version="1.0" encoding="utf-8" standalone="no"?>
<!DOCTYPE svg PUBLIC "-//W3C//DTD SVG 1.1//EN"
  "http://www.w3.org/Graphics/SVG/1.1/DTD/svg11.dtd">
<!-- Created with matplotlib (http://matplotlib.org/) -->
<svg height="216pt" version="1.1" viewBox="0 0 360 216" width="360pt" xmlns="http://www.w3.org/2000/svg" xmlns:xlink="http://www.w3.org/1999/xlink">
 <defs>
  <style type="text/css">
*{stroke-linecap:butt;stroke-linejoin:round;stroke-miterlimit:100000;}
  </style>
 </defs>
 <g id="figure_1">
  <g id="patch_1">
   <path d="M 0 216 
L 360 216 
L 360 0 
L 0 0 
z
" style="fill:#ffffff;"/>
  </g>
  <g id="axes_1">
   <g id="matplotlib.axis_1">
    <g id="xtick_1">
     <g id="line2d_1">
      <defs>
       <path d="M 0 0 
L 0 0 
" id="m4a3e378ff6" style="stroke:#262626;stroke-width:0.8;"/>
      </defs>
      <g>
       <use style="fill:#262626;stroke:#262626;stroke-width:0.8;" x="79.875" xlink:href="#m4a3e378ff6" y="70.8352941176"/>
      </g>
     </g>
     <g id="text_1">
      <!-- 1st time bin -->
      <defs>
       <path d="M 14.703125 0 
L 6.546875 0 
L 6.546875 71.578125 
L 15.328125 71.578125 
L 15.328125 46.046875 
Q 20.90625 53.03125 29.546875 53.03125 
Q 34.328125 53.03125 38.59375 51.09375 
Q 42.875 49.171875 45.625 45.671875 
Q 48.390625 42.1875 49.953125 37.25 
Q 51.515625 32.328125 51.515625 26.703125 
Q 51.515625 13.375 44.921875 6.09375 
Q 38.328125 -1.171875 29.109375 -1.171875 
Q 19.921875 -1.171875 14.703125 6.5 
z
M 14.59375 26.3125 
Q 14.59375 17 17.140625 12.84375 
Q 21.296875 6.0625 28.375 6.0625 
Q 34.125 6.0625 38.328125 11.0625 
Q 42.53125 16.0625 42.53125 25.984375 
Q 42.53125 36.140625 38.5 40.96875 
Q 34.46875 45.796875 28.765625 45.796875 
Q 23 45.796875 18.796875 40.796875 
Q 14.59375 35.796875 14.59375 26.3125 
" id="ArialMT-62"/>
       <path d="M 42.09375 16.703125 
L 51.171875 15.578125 
Q 49.03125 7.625 43.21875 3.21875 
Q 37.40625 -1.171875 28.375 -1.171875 
Q 17 -1.171875 10.328125 5.828125 
Q 3.65625 12.84375 3.65625 25.484375 
Q 3.65625 38.578125 10.390625 45.796875 
Q 17.140625 53.03125 27.875 53.03125 
Q 38.28125 53.03125 44.875 45.953125 
Q 51.46875 38.875 51.46875 26.03125 
Q 51.46875 25.25 51.421875 23.6875 
L 12.75 23.6875 
Q 13.234375 15.140625 17.578125 10.59375 
Q 21.921875 6.0625 28.421875 6.0625 
Q 33.25 6.0625 36.671875 8.59375 
Q 40.09375 11.140625 42.09375 16.703125 
M 13.234375 30.90625 
L 42.1875 30.90625 
Q 41.609375 37.453125 38.875 40.71875 
Q 34.671875 45.796875 27.984375 45.796875 
Q 21.921875 45.796875 17.796875 41.75 
Q 13.671875 37.703125 13.234375 30.90625 
" id="ArialMT-65"/>
       <path d="M 25.78125 7.859375 
L 27.046875 0.09375 
Q 23.34375 -0.6875 20.40625 -0.6875 
Q 15.625 -0.6875 12.984375 0.828125 
Q 10.359375 2.34375 9.28125 4.8125 
Q 8.203125 7.28125 8.203125 15.1875 
L 8.203125 45.015625 
L 1.765625 45.015625 
L 1.765625 51.859375 
L 8.203125 51.859375 
L 8.203125 64.703125 
L 16.9375 69.96875 
L 16.9375 51.859375 
L 25.78125 51.859375 
L 25.78125 45.015625 
L 16.9375 45.015625 
L 16.9375 14.703125 
Q 16.9375 10.9375 17.40625 9.859375 
Q 17.875 8.796875 18.921875 8.15625 
Q 19.96875 7.515625 21.921875 7.515625 
Q 23.390625 7.515625 25.78125 7.859375 
" id="ArialMT-74"/>
       <path d="M 6.640625 61.46875 
L 6.640625 71.578125 
L 15.4375 71.578125 
L 15.4375 61.46875 
z
M 6.640625 0 
L 6.640625 51.859375 
L 15.4375 51.859375 
L 15.4375 0 
z
" id="ArialMT-69"/>
       <path d="M 3.078125 15.484375 
L 11.765625 16.84375 
Q 12.5 11.625 15.84375 8.84375 
Q 19.1875 6.0625 25.203125 6.0625 
Q 31.25 6.0625 34.171875 8.515625 
Q 37.109375 10.984375 37.109375 14.3125 
Q 37.109375 17.28125 34.515625 19 
Q 32.71875 20.171875 25.53125 21.96875 
Q 15.875 24.421875 12.140625 26.203125 
Q 8.40625 27.984375 6.46875 31.125 
Q 4.546875 34.28125 4.546875 38.09375 
Q 4.546875 41.546875 6.125 44.5 
Q 7.71875 47.46875 10.453125 49.421875 
Q 12.5 50.921875 16.03125 51.96875 
Q 19.578125 53.03125 23.640625 53.03125 
Q 29.734375 53.03125 34.34375 51.265625 
Q 38.96875 49.515625 41.15625 46.5 
Q 43.359375 43.5 44.1875 38.484375 
L 35.59375 37.3125 
Q 35.015625 41.3125 32.203125 43.546875 
Q 29.390625 45.796875 24.265625 45.796875 
Q 18.21875 45.796875 15.625 43.796875 
Q 13.03125 41.796875 13.03125 39.109375 
Q 13.03125 37.40625 14.109375 36.03125 
Q 15.1875 34.625 17.484375 33.6875 
Q 18.796875 33.203125 25.25 31.453125 
Q 34.578125 28.953125 38.25 27.359375 
Q 41.9375 25.78125 44.03125 22.75 
Q 46.140625 19.734375 46.140625 15.234375 
Q 46.140625 10.84375 43.578125 6.953125 
Q 41.015625 3.078125 36.171875 0.953125 
Q 31.34375 -1.171875 25.25 -1.171875 
Q 15.140625 -1.171875 9.84375 3.03125 
Q 4.546875 7.234375 3.078125 15.484375 
" id="ArialMT-73"/>
       <path d="M 6.59375 0 
L 6.59375 51.859375 
L 14.5 51.859375 
L 14.5 44.484375 
Q 20.21875 53.03125 31 53.03125 
Q 35.6875 53.03125 39.625 51.34375 
Q 43.5625 49.65625 45.515625 46.921875 
Q 47.46875 44.1875 48.25 40.4375 
Q 48.734375 37.984375 48.734375 31.890625 
L 48.734375 0 
L 39.9375 0 
L 39.9375 31.546875 
Q 39.9375 36.921875 38.90625 39.578125 
Q 37.890625 42.234375 35.28125 43.8125 
Q 32.671875 45.40625 29.15625 45.40625 
Q 23.53125 45.40625 19.453125 41.84375 
Q 15.375 38.28125 15.375 28.328125 
L 15.375 0 
z
" id="ArialMT-6e"/>
       <path d="M 6.59375 0 
L 6.59375 51.859375 
L 14.453125 51.859375 
L 14.453125 44.578125 
Q 16.890625 48.390625 20.9375 50.703125 
Q 25 53.03125 30.171875 53.03125 
Q 35.9375 53.03125 39.625 50.640625 
Q 43.3125 48.25 44.828125 43.953125 
Q 50.984375 53.03125 60.84375 53.03125 
Q 68.5625 53.03125 72.703125 48.75 
Q 76.859375 44.484375 76.859375 35.59375 
L 76.859375 0 
L 68.109375 0 
L 68.109375 32.671875 
Q 68.109375 37.9375 67.25 40.25 
Q 66.40625 42.578125 64.15625 43.984375 
Q 61.921875 45.40625 58.890625 45.40625 
Q 53.421875 45.40625 49.796875 41.765625 
Q 46.1875 38.140625 46.1875 30.125 
L 46.1875 0 
L 37.40625 0 
L 37.40625 33.6875 
Q 37.40625 39.546875 35.25 42.46875 
Q 33.109375 45.40625 28.21875 45.40625 
Q 24.515625 45.40625 21.359375 43.453125 
Q 18.21875 41.5 16.796875 37.734375 
Q 15.375 33.984375 15.375 26.90625 
L 15.375 0 
z
" id="ArialMT-6d"/>
       <path d="M 37.25 0 
L 28.46875 0 
L 28.46875 56 
Q 25.296875 52.984375 20.140625 49.953125 
Q 14.984375 46.921875 10.890625 45.40625 
L 10.890625 53.90625 
Q 18.265625 57.375 23.78125 62.296875 
Q 29.296875 67.234375 31.59375 71.875 
L 37.25 71.875 
z
" id="ArialMT-31"/>
       <path id="ArialMT-20"/>
      </defs>
      <g style="fill:#262626;" transform="translate(59.423125 82.1615441176)scale(0.08 -0.08)">
       <use xlink:href="#ArialMT-31"/>
       <use x="55.615234375" xlink:href="#ArialMT-73"/>
       <use x="105.615234375" xlink:href="#ArialMT-74"/>
       <use x="133.3984375" xlink:href="#ArialMT-20"/>
       <use x="161.181640625" xlink:href="#ArialMT-74"/>
       <use x="188.96484375" xlink:href="#ArialMT-69"/>
       <use x="211.181640625" xlink:href="#ArialMT-6d"/>
       <use x="294.482421875" xlink:href="#ArialMT-65"/>
       <use x="350.09765625" xlink:href="#ArialMT-20"/>
       <use x="377.880859375" xlink:href="#ArialMT-62"/>
       <use x="433.49609375" xlink:href="#ArialMT-69"/>
       <use x="455.712890625" xlink:href="#ArialMT-6e"/>
      </g>
     </g>
    </g>
    <g id="xtick_2">
     <g id="line2d_2">
      <g>
       <use style="fill:#262626;stroke:#262626;stroke-width:0.8;" x="149.625" xlink:href="#m4a3e378ff6" y="70.8352941176"/>
      </g>
     </g>
     <g id="text_2">
      <!-- 2nd -->
      <defs>
       <path d="M 50.34375 8.453125 
L 50.34375 0 
L 3.03125 0 
Q 2.9375 3.171875 4.046875 6.109375 
Q 5.859375 10.9375 9.828125 15.625 
Q 13.8125 20.3125 21.34375 26.46875 
Q 33.015625 36.03125 37.109375 41.625 
Q 41.21875 47.21875 41.21875 52.203125 
Q 41.21875 57.421875 37.46875 61 
Q 33.734375 64.59375 27.734375 64.59375 
Q 21.390625 64.59375 17.578125 60.78125 
Q 13.765625 56.984375 13.71875 50.25 
L 4.6875 51.171875 
Q 5.609375 61.28125 11.65625 66.578125 
Q 17.71875 71.875 27.9375 71.875 
Q 38.234375 71.875 44.234375 66.15625 
Q 50.25 60.453125 50.25 52 
Q 50.25 47.703125 48.484375 43.546875 
Q 46.734375 39.40625 42.65625 34.8125 
Q 38.578125 30.21875 29.109375 22.21875 
Q 21.1875 15.578125 18.9375 13.203125 
Q 16.703125 10.84375 15.234375 8.453125 
z
" id="ArialMT-32"/>
       <path d="M 40.234375 0 
L 40.234375 6.546875 
Q 35.296875 -1.171875 25.734375 -1.171875 
Q 19.53125 -1.171875 14.328125 2.25 
Q 9.125 5.671875 6.265625 11.796875 
Q 3.421875 17.921875 3.421875 25.875 
Q 3.421875 33.640625 6 39.96875 
Q 8.59375 46.296875 13.765625 49.65625 
Q 18.953125 53.03125 25.34375 53.03125 
Q 30.03125 53.03125 33.6875 51.046875 
Q 37.359375 49.078125 39.65625 45.90625 
L 39.65625 71.578125 
L 48.390625 71.578125 
L 48.390625 0 
z
M 12.453125 25.875 
Q 12.453125 15.921875 16.640625 10.984375 
Q 20.84375 6.0625 26.5625 6.0625 
Q 32.328125 6.0625 36.34375 10.765625 
Q 40.375 15.484375 40.375 25.140625 
Q 40.375 35.796875 36.265625 40.765625 
Q 32.171875 45.75 26.171875 45.75 
Q 20.3125 45.75 16.375 40.96875 
Q 12.453125 36.1875 12.453125 25.875 
" id="ArialMT-64"/>
      </defs>
      <g style="fill:#262626;" transform="translate(142.951875 82.1615441176)scale(0.08 -0.08)">
       <use xlink:href="#ArialMT-32"/>
       <use x="55.615234375" xlink:href="#ArialMT-6e"/>
       <use x="111.23046875" xlink:href="#ArialMT-64"/>
      </g>
     </g>
    </g>
    <g id="xtick_3">
     <g id="line2d_3">
      <g>
       <use style="fill:#262626;stroke:#262626;stroke-width:0.8;" x="219.375" xlink:href="#m4a3e378ff6" y="70.8352941176"/>
      </g>
     </g>
     <g id="text_3">
      <!-- 3rd -->
      <defs>
       <path d="M 4.203125 18.890625 
L 12.984375 20.0625 
Q 14.5 12.59375 18.140625 9.296875 
Q 21.78125 6 27 6 
Q 33.203125 6 37.46875 10.296875 
Q 41.75 14.59375 41.75 20.953125 
Q 41.75 27 37.796875 30.921875 
Q 33.84375 34.859375 27.734375 34.859375 
Q 25.25 34.859375 21.53125 33.890625 
L 22.515625 41.609375 
Q 23.390625 41.5 23.921875 41.5 
Q 29.546875 41.5 34.03125 44.421875 
Q 38.53125 47.359375 38.53125 53.46875 
Q 38.53125 58.296875 35.25 61.46875 
Q 31.984375 64.65625 26.8125 64.65625 
Q 21.6875 64.65625 18.265625 61.421875 
Q 14.84375 58.203125 13.875 51.765625 
L 5.078125 53.328125 
Q 6.6875 62.15625 12.390625 67.015625 
Q 18.109375 71.875 26.609375 71.875 
Q 32.46875 71.875 37.390625 69.359375 
Q 42.328125 66.84375 44.9375 62.5 
Q 47.5625 58.15625 47.5625 53.265625 
Q 47.5625 48.640625 45.0625 44.828125 
Q 42.578125 41.015625 37.703125 38.765625 
Q 44.046875 37.3125 47.5625 32.6875 
Q 51.078125 28.078125 51.078125 21.140625 
Q 51.078125 11.765625 44.234375 5.25 
Q 37.40625 -1.265625 26.953125 -1.265625 
Q 17.53125 -1.265625 11.296875 4.34375 
Q 5.078125 9.96875 4.203125 18.890625 
" id="ArialMT-33"/>
       <path d="M 6.5 0 
L 6.5 51.859375 
L 14.40625 51.859375 
L 14.40625 44 
Q 17.4375 49.515625 20 51.265625 
Q 22.5625 53.03125 25.640625 53.03125 
Q 30.078125 53.03125 34.671875 50.203125 
L 31.640625 42.046875 
Q 28.421875 43.953125 25.203125 43.953125 
Q 22.3125 43.953125 20.015625 42.21875 
Q 17.71875 40.484375 16.75 37.40625 
Q 15.28125 32.71875 15.28125 27.15625 
L 15.28125 0 
z
" id="ArialMT-72"/>
      </defs>
      <g style="fill:#262626;" transform="translate(213.594375 82.1615441176)scale(0.08 -0.08)">
       <use xlink:href="#ArialMT-33"/>
       <use x="55.615234375" xlink:href="#ArialMT-72"/>
       <use x="88.916015625" xlink:href="#ArialMT-64"/>
      </g>
     </g>
    </g>
    <g id="xtick_4">
     <g id="line2d_4">
      <g>
       <use style="fill:#262626;stroke:#262626;stroke-width:0.8;" x="289.125" xlink:href="#m4a3e378ff6" y="70.8352941176"/>
      </g>
     </g>
     <g id="text_4">
      <!-- 4th -->
      <defs>
       <path d="M 6.59375 0 
L 6.59375 71.578125 
L 15.375 71.578125 
L 15.375 45.90625 
Q 21.53125 53.03125 30.90625 53.03125 
Q 36.671875 53.03125 40.921875 50.75 
Q 45.171875 48.484375 47 44.484375 
Q 48.828125 40.484375 48.828125 32.859375 
L 48.828125 0 
L 40.046875 0 
L 40.046875 32.859375 
Q 40.046875 39.453125 37.1875 42.453125 
Q 34.328125 45.453125 29.109375 45.453125 
Q 25.203125 45.453125 21.75 43.421875 
Q 18.3125 41.40625 16.84375 37.9375 
Q 15.375 34.46875 15.375 28.375 
L 15.375 0 
z
" id="ArialMT-68"/>
       <path d="M 32.328125 0 
L 32.328125 17.140625 
L 1.265625 17.140625 
L 1.265625 25.203125 
L 33.9375 71.578125 
L 41.109375 71.578125 
L 41.109375 25.203125 
L 50.78125 25.203125 
L 50.78125 17.140625 
L 41.109375 17.140625 
L 41.109375 0 
z
M 32.328125 25.203125 
L 32.328125 57.46875 
L 9.90625 25.203125 
z
" id="ArialMT-34"/>
      </defs>
      <g style="fill:#262626;" transform="translate(283.565 82.1615441176)scale(0.08 -0.08)">
       <use xlink:href="#ArialMT-34"/>
       <use x="55.615234375" xlink:href="#ArialMT-74"/>
       <use x="83.3984375" xlink:href="#ArialMT-68"/>
      </g>
     </g>
    </g>
   </g>
   <g id="matplotlib.axis_2">
    <g id="ytick_1">
     <g id="line2d_5">
      <g>
       <use style="fill:#262626;stroke:#262626;stroke-width:0.8;" x="45.0" xlink:href="#m4a3e378ff6" y="58.5264705882"/>
      </g>
     </g>
     <g id="text_5">
      <!-- low-low -->
      <defs>
       <path d="M 6.390625 0 
L 6.390625 71.578125 
L 15.1875 71.578125 
L 15.1875 0 
z
" id="ArialMT-6c"/>
       <path d="M 16.15625 0 
L 0.296875 51.859375 
L 9.375 51.859375 
L 17.625 21.921875 
L 20.703125 10.796875 
Q 20.90625 11.625 23.390625 21.484375 
L 31.640625 51.859375 
L 40.671875 51.859375 
L 48.4375 21.78125 
L 51.03125 11.859375 
L 54 21.875 
L 62.890625 51.859375 
L 71.4375 51.859375 
L 55.21875 0 
L 46.09375 0 
L 37.84375 31.0625 
L 35.84375 39.890625 
L 25.34375 0 
z
" id="ArialMT-77"/>
       <path d="M 3.328125 25.921875 
Q 3.328125 40.328125 11.328125 47.265625 
Q 18.015625 53.03125 27.640625 53.03125 
Q 38.328125 53.03125 45.109375 46.015625 
Q 51.90625 39.015625 51.90625 26.65625 
Q 51.90625 16.65625 48.90625 10.90625 
Q 45.90625 5.171875 40.15625 2 
Q 34.421875 -1.171875 27.640625 -1.171875 
Q 16.75 -1.171875 10.03125 5.8125 
Q 3.328125 12.796875 3.328125 25.921875 
M 12.359375 25.921875 
Q 12.359375 15.96875 16.703125 11.015625 
Q 21.046875 6.0625 27.640625 6.0625 
Q 34.1875 6.0625 38.53125 11.03125 
Q 42.875 16.015625 42.875 26.21875 
Q 42.875 35.84375 38.5 40.796875 
Q 34.125 45.75 27.640625 45.75 
Q 21.046875 45.75 16.703125 40.8125 
Q 12.359375 35.890625 12.359375 25.921875 
" id="ArialMT-6f"/>
       <path d="M 3.171875 21.484375 
L 3.171875 30.328125 
L 30.171875 30.328125 
L 30.171875 21.484375 
z
" id="ArialMT-2d"/>
      </defs>
      <g style="fill:#262626;" transform="translate(37.81 71.8620955882)rotate(-90.0)scale(0.08 -0.08)">
       <use xlink:href="#ArialMT-6c"/>
       <use x="22.216796875" xlink:href="#ArialMT-6f"/>
       <use x="77.83203125" xlink:href="#ArialMT-77"/>
       <use x="150.048828125" xlink:href="#ArialMT-2d"/>
       <use x="183.349609375" xlink:href="#ArialMT-6c"/>
       <use x="205.56640625" xlink:href="#ArialMT-6f"/>
       <use x="261.181640625" xlink:href="#ArialMT-77"/>
      </g>
     </g>
    </g>
    <g id="ytick_2">
     <g id="line2d_6">
      <g>
       <use style="fill:#262626;stroke:#262626;stroke-width:0.8;" x="45.0" xlink:href="#m4a3e378ff6" y="33.9088235294"/>
      </g>
     </g>
     <g id="text_6">
      <!-- low-high -->
      <defs>
       <path d="M 4.984375 -4.296875 
L 13.53125 -5.5625 
Q 14.0625 -9.515625 16.5 -11.328125 
Q 19.78125 -13.765625 25.4375 -13.765625 
Q 31.546875 -13.765625 34.859375 -11.328125 
Q 38.1875 -8.890625 39.359375 -4.5 
Q 40.046875 -1.8125 39.984375 6.78125 
Q 34.234375 0 25.640625 0 
Q 14.9375 0 9.078125 7.71875 
Q 3.21875 15.4375 3.21875 26.21875 
Q 3.21875 33.640625 5.90625 39.90625 
Q 8.59375 46.1875 13.6875 49.609375 
Q 18.796875 53.03125 25.6875 53.03125 
Q 34.859375 53.03125 40.828125 45.609375 
L 40.828125 51.859375 
L 48.921875 51.859375 
L 48.921875 7.03125 
Q 48.921875 -5.078125 46.453125 -10.125 
Q 44 -15.1875 38.640625 -18.109375 
Q 33.296875 -21.046875 25.484375 -21.046875 
Q 16.21875 -21.046875 10.5 -16.875 
Q 4.78125 -12.703125 4.984375 -4.296875 
M 12.25 26.859375 
Q 12.25 16.65625 16.296875 11.96875 
Q 20.359375 7.28125 26.46875 7.28125 
Q 32.515625 7.28125 36.609375 11.9375 
Q 40.71875 16.609375 40.71875 26.5625 
Q 40.71875 36.078125 36.5 40.90625 
Q 32.28125 45.75 26.3125 45.75 
Q 20.453125 45.75 16.34375 40.984375 
Q 12.25 36.234375 12.25 26.859375 
" id="ArialMT-67"/>
      </defs>
      <g style="fill:#262626;" transform="translate(37.71625 48.8044485294)rotate(-90.0)scale(0.08 -0.08)">
       <use xlink:href="#ArialMT-6c"/>
       <use x="22.216796875" xlink:href="#ArialMT-6f"/>
       <use x="77.83203125" xlink:href="#ArialMT-77"/>
       <use x="150.048828125" xlink:href="#ArialMT-2d"/>
       <use x="183.349609375" xlink:href="#ArialMT-68"/>
       <use x="238.96484375" xlink:href="#ArialMT-69"/>
       <use x="261.181640625" xlink:href="#ArialMT-67"/>
       <use x="316.796875" xlink:href="#ArialMT-68"/>
      </g>
     </g>
    </g>
   </g>
   <g id="QuadMesh_1">
    <path clip-path="url(#p04b61366f4)" d="M 45 70.835294 
L 114.75 70.835294 
L 114.75 46.217647 
L 45 46.217647 
L 45 70.835294 
" style="fill:#8dc1dd;fill-opacity:0.8;"/>
    <path clip-path="url(#p04b61366f4)" d="M 114.75 70.835294 
L 184.5 70.835294 
L 184.5 46.217647 
L 114.75 46.217647 
L 114.75 70.835294 
" style="fill:#abd0e6;fill-opacity:0.8;"/>
    <path clip-path="url(#p04b61366f4)" d="M 184.5 70.835294 
L 254.25 70.835294 
L 254.25 46.217647 
L 184.5 46.217647 
L 184.5 70.835294 
" style="fill:#f7fbff;fill-opacity:0.8;"/>
    <path clip-path="url(#p04b61366f4)" d="M 254.25 70.835294 
L 324 70.835294 
L 324 46.217647 
L 254.25 46.217647 
L 254.25 70.835294 
" style="fill:#e7f0fa;fill-opacity:0.8;"/>
    <path clip-path="url(#p04b61366f4)" d="M 45 46.217647 
L 114.75 46.217647 
L 114.75 21.6 
L 45 21.6 
L 45 46.217647 
" style="fill:#08306b;fill-opacity:0.8;"/>
    <path clip-path="url(#p04b61366f4)" d="M 114.75 46.217647 
L 184.5 46.217647 
L 184.5 21.6 
L 114.75 21.6 
L 114.75 46.217647 
" style="fill:#3787c0;fill-opacity:0.8;"/>
    <path clip-path="url(#p04b61366f4)" d="M 184.5 46.217647 
L 254.25 46.217647 
L 254.25 21.6 
L 184.5 21.6 
L 184.5 46.217647 
" style="fill:#c6dbef;fill-opacity:0.8;"/>
    <path clip-path="url(#p04b61366f4)" d="M 254.25 46.217647 
L 324 46.217647 
L 324 21.6 
L 254.25 21.6 
L 254.25 46.217647 
" style="fill:#c6dbef;fill-opacity:0.8;"/>
   </g>
   <g id="text_7">
    <!-- 5 -->
    <defs>
     <path d="M 4.4375 18.40625 
L 18.109375 19.828125 
Q 18.703125 15.1875 21.578125 12.46875 
Q 24.46875 9.765625 28.21875 9.765625 
Q 32.515625 9.765625 35.5 13.25 
Q 38.484375 16.75 38.484375 23.78125 
Q 38.484375 30.375 35.515625 33.671875 
Q 32.5625 36.96875 27.828125 36.96875 
Q 21.921875 36.96875 17.234375 31.734375 
L 6.109375 33.34375 
L 13.140625 70.609375 
L 49.421875 70.609375 
L 49.421875 57.765625 
L 23.53125 57.765625 
L 21.390625 45.609375 
Q 25.984375 47.90625 30.765625 47.90625 
Q 39.890625 47.90625 46.234375 41.265625 
Q 52.59375 34.625 52.59375 24.03125 
Q 52.59375 15.1875 47.46875 8.25 
Q 40.484375 -1.21875 28.078125 -1.21875 
Q 18.171875 -1.21875 11.921875 4.09375 
Q 5.671875 9.421875 4.4375 18.40625 
" id="Arial-BoldMT-35"/>
    </defs>
    <g style="fill:#ffffff;" transform="translate(77.20575 61.0149705882)scale(0.096 -0.096)">
     <use xlink:href="#Arial-BoldMT-35"/>
    </g>
   </g>
   <g id="text_8">
    <!-- 4 -->
    <defs>
     <path d="M 31.15625 0 
L 31.15625 14.40625 
L 1.859375 14.40625 
L 1.859375 26.421875 
L 32.90625 71.875 
L 44.4375 71.875 
L 44.4375 26.46875 
L 53.328125 26.46875 
L 53.328125 14.40625 
L 44.4375 14.40625 
L 44.4375 0 
z
M 31.15625 26.46875 
L 31.15625 50.921875 
L 14.703125 26.46875 
z
" id="Arial-BoldMT-34"/>
    </defs>
    <g style="fill:#ffffff;" transform="translate(146.95575 61.0149705882)scale(0.096 -0.096)">
     <use xlink:href="#Arial-BoldMT-34"/>
    </g>
   </g>
   <g id="text_9">
    <!-- 0 -->
    <defs>
     <path d="M 27.4375 71.875 
Q 37.84375 71.875 43.703125 64.453125 
Q 50.6875 55.671875 50.6875 35.296875 
Q 50.6875 14.984375 43.65625 6.109375 
Q 37.84375 -1.21875 27.4375 -1.21875 
Q 17 -1.21875 10.59375 6.8125 
Q 4.203125 14.84375 4.203125 35.453125 
Q 4.203125 55.671875 11.234375 64.546875 
Q 17.046875 71.875 27.4375 71.875 
M 27.4375 60.5 
Q 24.953125 60.5 23 58.90625 
Q 21.046875 57.328125 19.96875 53.21875 
Q 18.5625 47.90625 18.5625 35.296875 
Q 18.5625 22.703125 19.828125 17.984375 
Q 21.09375 13.28125 23.015625 11.71875 
Q 24.953125 10.15625 27.4375 10.15625 
Q 29.9375 10.15625 31.890625 11.734375 
Q 33.84375 13.328125 34.90625 17.4375 
Q 36.328125 22.703125 36.328125 35.296875 
Q 36.328125 47.90625 35.0625 52.609375 
Q 33.796875 57.328125 31.859375 58.90625 
Q 29.9375 60.5 27.4375 60.5 
" id="Arial-BoldMT-30"/>
    </defs>
    <g style="fill:#ffffff;" transform="translate(216.70575 61.0149705882)scale(0.096 -0.096)">
     <use xlink:href="#Arial-BoldMT-30"/>
    </g>
   </g>
   <g id="text_10">
    <!-- 1 -->
    <defs>
     <path d="M 39.359375 0 
L 25.640625 0 
L 25.640625 51.703125 
Q 18.109375 44.671875 7.90625 41.3125 
L 7.90625 53.765625 
Q 13.28125 55.515625 19.578125 60.421875 
Q 25.875 65.328125 28.21875 71.875 
L 39.359375 71.875 
z
" id="Arial-BoldMT-31"/>
    </defs>
    <g style="fill:#ffffff;" transform="translate(286.45575 61.0149705882)scale(0.096 -0.096)">
     <use xlink:href="#Arial-BoldMT-31"/>
    </g>
   </g>
   <g id="text_11">
    <!-- 12 -->
    <defs>
     <path d="M 50.59375 12.75 
L 50.59375 0 
L 2.484375 0 
Q 3.265625 7.234375 7.171875 13.703125 
Q 11.078125 20.171875 22.609375 30.859375 
Q 31.890625 39.5 33.984375 42.578125 
Q 36.8125 46.828125 36.8125 50.984375 
Q 36.8125 55.5625 34.34375 58.03125 
Q 31.890625 60.5 27.546875 60.5 
Q 23.25 60.5 20.703125 57.90625 
Q 18.171875 55.328125 17.78125 49.3125 
L 4.109375 50.6875 
Q 5.328125 62.015625 11.765625 66.9375 
Q 18.21875 71.875 27.875 71.875 
Q 38.484375 71.875 44.53125 66.15625 
Q 50.59375 60.453125 50.59375 51.953125 
Q 50.59375 47.125 48.859375 42.75 
Q 47.125 38.375 43.359375 33.59375 
Q 40.875 30.421875 34.375 24.453125 
Q 27.875 18.5 26.140625 16.546875 
Q 24.421875 14.59375 23.34375 12.75 
z
" id="Arial-BoldMT-32"/>
    </defs>
    <g style="fill:#ffffff;" transform="translate(74.5365 36.3973235294)scale(0.096 -0.096)">
     <use xlink:href="#Arial-BoldMT-31"/>
     <use x="55.615234375" xlink:href="#Arial-BoldMT-32"/>
    </g>
   </g>
   <g id="text_12">
    <!-- 8 -->
    <defs>
     <path d="M 16.015625 38.625 
Q 10.6875 40.875 8.265625 44.796875 
Q 5.859375 48.734375 5.859375 53.421875 
Q 5.859375 61.421875 11.453125 66.640625 
Q 17.046875 71.875 27.34375 71.875 
Q 37.546875 71.875 43.1875 66.640625 
Q 48.828125 61.421875 48.828125 53.421875 
Q 48.828125 48.4375 46.234375 44.546875 
Q 43.65625 40.671875 38.96875 38.625 
Q 44.921875 36.234375 48.015625 31.640625 
Q 51.125 27.046875 51.125 21.046875 
Q 51.125 11.140625 44.796875 4.9375 
Q 38.484375 -1.265625 27.984375 -1.265625 
Q 18.21875 -1.265625 11.71875 3.859375 
Q 4.046875 9.90625 4.046875 20.453125 
Q 4.046875 26.265625 6.921875 31.125 
Q 9.8125 35.984375 16.015625 38.625 
M 18.84375 52.4375 
Q 18.84375 48.34375 21.15625 46.046875 
Q 23.484375 43.75 27.34375 43.75 
Q 31.25 43.75 33.59375 46.0625 
Q 35.9375 48.390625 35.9375 52.484375 
Q 35.9375 56.34375 33.609375 58.65625 
Q 31.296875 60.984375 27.484375 60.984375 
Q 23.53125 60.984375 21.1875 58.640625 
Q 18.84375 56.296875 18.84375 52.4375 
M 17.578125 21.78125 
Q 17.578125 16.109375 20.484375 12.9375 
Q 23.390625 9.765625 27.734375 9.765625 
Q 31.984375 9.765625 34.765625 12.8125 
Q 37.546875 15.875 37.546875 21.625 
Q 37.546875 26.65625 34.71875 29.703125 
Q 31.890625 32.765625 27.546875 32.765625 
Q 22.515625 32.765625 20.046875 29.296875 
Q 17.578125 25.828125 17.578125 21.78125 
" id="Arial-BoldMT-38"/>
    </defs>
    <g style="fill:#ffffff;" transform="translate(146.95575 36.3973235294)scale(0.096 -0.096)">
     <use xlink:href="#Arial-BoldMT-38"/>
    </g>
   </g>
   <g id="text_13">
    <!-- 3 -->
    <defs>
     <path d="M 3.765625 19 
L 17.046875 20.609375 
Q 17.671875 15.53125 20.453125 12.84375 
Q 23.25 10.15625 27.203125 10.15625 
Q 31.453125 10.15625 34.34375 13.375 
Q 37.25 16.609375 37.25 22.078125 
Q 37.25 27.25 34.46875 30.265625 
Q 31.6875 33.296875 27.6875 33.296875 
Q 25.046875 33.296875 21.390625 32.28125 
L 22.90625 43.453125 
Q 28.46875 43.3125 31.390625 45.875 
Q 34.328125 48.4375 34.328125 52.6875 
Q 34.328125 56.296875 32.171875 58.4375 
Q 30.03125 60.59375 26.46875 60.59375 
Q 22.953125 60.59375 20.453125 58.15625 
Q 17.96875 55.71875 17.4375 51.03125 
L 4.78125 53.171875 
Q 6.109375 59.671875 8.765625 63.546875 
Q 11.421875 67.4375 16.1875 69.65625 
Q 20.953125 71.875 26.859375 71.875 
Q 36.96875 71.875 43.0625 65.4375 
Q 48.09375 60.15625 48.09375 53.515625 
Q 48.09375 44.09375 37.796875 38.484375 
Q 43.953125 37.15625 47.625 32.5625 
Q 51.3125 27.984375 51.3125 21.484375 
Q 51.3125 12.0625 44.421875 5.421875 
Q 37.546875 -1.21875 27.296875 -1.21875 
Q 17.578125 -1.21875 11.171875 4.375 
Q 4.78125 9.96875 3.765625 19 
" id="Arial-BoldMT-33"/>
    </defs>
    <g style="fill:#ffffff;" transform="translate(216.70575 36.3973235294)scale(0.096 -0.096)">
     <use xlink:href="#Arial-BoldMT-33"/>
    </g>
   </g>
   <g id="text_14">
    <!-- 3 -->
    <g style="fill:#ffffff;" transform="translate(286.45575 36.3973235294)scale(0.096 -0.096)">
     <use xlink:href="#Arial-BoldMT-33"/>
    </g>
   </g>
   <g id="text_15">
    <!-- $PT_2PC$, IG=0.17 -->
    <defs>
     <path d="M 9.328125 0 
L 9.328125 71.578125 
L 18.796875 71.578125 
L 18.796875 0 
z
" id="ArialMT-49"/>
     <path d="M 4.984375 0 
L 4.984375 2.6875 
Q 4.984375 2.9375 5.171875 3.21875 
L 20.703125 20.40625 
Q 24.21875 24.21875 26.40625 26.796875 
Q 28.609375 29.390625 30.75 32.765625 
Q 32.90625 36.140625 34.15625 39.625 
Q 35.40625 43.109375 35.40625 47.015625 
Q 35.40625 51.125 33.890625 54.859375 
Q 32.375 58.59375 29.375 60.84375 
Q 26.375 63.09375 22.125 63.09375 
Q 17.78125 63.09375 14.3125 60.46875 
Q 10.84375 57.859375 9.421875 53.71875 
Q 9.8125 53.8125 10.5 53.8125 
Q 12.75 53.8125 14.328125 52.296875 
Q 15.921875 50.78125 15.921875 48.390625 
Q 15.921875 46.09375 14.328125 44.5 
Q 12.75 42.921875 10.5 42.921875 
Q 8.15625 42.921875 6.5625 44.546875 
Q 4.984375 46.1875 4.984375 48.390625 
Q 4.984375 52.15625 6.390625 55.4375 
Q 7.8125 58.734375 10.46875 61.296875 
Q 13.140625 63.875 16.484375 65.234375 
Q 19.828125 66.609375 23.578125 66.609375 
Q 29.296875 66.609375 34.21875 64.1875 
Q 39.15625 61.765625 42.03125 57.34375 
Q 44.921875 52.9375 44.921875 47.015625 
Q 44.921875 42.671875 43.015625 38.765625 
Q 41.109375 34.859375 38.125 31.65625 
Q 35.15625 28.46875 30.515625 24.40625 
Q 25.875 20.359375 24.421875 19 
L 13.09375 8.109375 
L 22.703125 8.109375 
Q 29.78125 8.109375 34.546875 8.21875 
Q 39.3125 8.34375 39.59375 8.59375 
Q 40.765625 9.859375 42 17.828125 
L 44.921875 17.828125 
L 42.09375 0 
z
" id="Cmr10-32"/>
     <path d="M 52.828125 42.09375 
L 5.5625 42.09375 
L 5.5625 50.296875 
L 52.828125 50.296875 
z
M 52.828125 20.359375 
L 5.5625 20.359375 
L 5.5625 28.5625 
L 52.828125 28.5625 
z
" id="ArialMT-3d"/>
     <path d="M 4.890625 0 
Q 3.90625 0 3.90625 1.3125 
Q 3.953125 1.5625 4.09375 2.171875 
Q 4.25 2.78125 4.515625 3.140625 
Q 4.78125 3.515625 5.171875 3.515625 
Q 11.28125 3.515625 13.71875 4.203125 
Q 14.984375 4.640625 15.578125 6.890625 
L 29.296875 61.8125 
Q 29.5 62.796875 29.5 63.1875 
Q 29.5 64.265625 28.328125 64.40625 
Q 26.421875 64.796875 21.09375 64.796875 
Q 20.125 64.796875 20.125 66.109375 
Q 20.171875 66.359375 20.3125 66.96875 
Q 20.453125 67.578125 20.71875 67.9375 
Q 21 68.3125 21.390625 68.3125 
L 55.90625 68.3125 
Q 60.640625 68.3125 65.078125 66.625 
Q 69.53125 64.9375 72.359375 61.46875 
Q 75.203125 58.015625 75.203125 53.078125 
Q 75.203125 46.734375 70.734375 41.75 
Q 66.265625 36.765625 59.59375 33.984375 
Q 52.9375 31.203125 46.6875 31.203125 
L 30.421875 31.203125 
L 24.3125 6.5 
Q 24.125 5.515625 24.125 5.078125 
Q 24.125 4.6875 24.234375 4.421875 
Q 24.359375 4.15625 24.578125 4.078125 
Q 24.8125 4 25.296875 3.90625 
Q 27.203125 3.515625 32.515625 3.515625 
Q 33.5 3.515625 33.5 2.203125 
Q 33.15625 0.78125 32.953125 0.390625 
Q 32.765625 0 31.78125 0 
z
M 30.90625 34.1875 
L 44.921875 34.1875 
Q 54.640625 34.1875 59.71875 39.40625 
Q 62.3125 42 63.9375 46.875 
Q 65.578125 51.765625 65.578125 55.71875 
Q 65.578125 60.640625 61.8125 62.71875 
Q 58.0625 64.796875 52.484375 64.796875 
L 42.921875 64.796875 
Q 40.1875 64.796875 39.296875 64.328125 
Q 38.421875 63.875 37.703125 61.375 
z
" id="Cmmi10-50"/>
     <path d="M 8.890625 0 
L 8.890625 10.015625 
L 18.890625 10.015625 
L 18.890625 0 
Q 18.890625 -5.515625 16.9375 -8.90625 
Q 14.984375 -12.3125 10.75 -14.15625 
L 8.296875 -10.40625 
Q 11.078125 -9.1875 12.390625 -6.8125 
Q 13.71875 -4.4375 13.875 0 
z
" id="ArialMT-2c"/>
     <path d="M 9.078125 0 
L 9.078125 10.015625 
L 19.09375 10.015625 
L 19.09375 0 
z
" id="ArialMT-2e"/>
     <path d="M 4.59375 1.3125 
Q 4.640625 1.5625 4.8125 2.1875 
Q 4.984375 2.828125 5.25 3.171875 
Q 5.515625 3.515625 6 3.515625 
Q 14.59375 3.515625 17.390625 4 
Q 20.0625 4.6875 20.609375 6.890625 
L 34.28125 61.8125 
Q 34.71875 63.03125 34.71875 64.015625 
Q 34.71875 64.796875 31.203125 64.796875 
L 25.390625 64.796875 
Q 18.703125 64.796875 15.0625 62.734375 
Q 11.421875 60.6875 9.71875 57.3125 
Q 8.015625 53.953125 5.328125 46.296875 
Q 4.984375 45.40625 4.296875 45.40625 
L 3.421875 45.40625 
Q 2.390625 45.40625 2.390625 46.6875 
L 9.515625 67.390625 
Q 9.71875 68.3125 10.5 68.3125 
L 69.578125 68.3125 
Q 70.609375 68.3125 70.609375 67 
L 67.28125 46.296875 
Q 67.28125 46 66.9375 45.703125 
Q 66.609375 45.40625 66.3125 45.40625 
L 65.375 45.40625 
Q 64.40625 45.40625 64.40625 46.6875 
Q 65.484375 53.765625 65.484375 56.6875 
Q 65.484375 60.203125 64.015625 62 
Q 62.546875 63.8125 60.203125 64.296875 
Q 57.859375 64.796875 54.109375 64.796875 
L 48.1875 64.796875 
Q 45.515625 64.796875 44.578125 64.296875 
Q 43.65625 63.8125 43.015625 61.375 
L 29.296875 6.5 
Q 29.25 6.296875 29.21875 6.09375 
Q 29.203125 5.90625 29.109375 5.609375 
Q 29.109375 4.34375 30.609375 4 
Q 33.203125 3.515625 41.703125 3.515625 
Q 42.671875 3.515625 42.671875 2.203125 
Q 42.328125 0.78125 42.125 0.390625 
Q 41.9375 0 41.015625 0 
L 5.609375 0 
Q 4.59375 0 4.59375 1.3125 
" id="Cmmi10-54"/>
     <path d="M 41.21875 28.078125 
L 41.21875 36.46875 
L 71.53125 36.53125 
L 71.53125 9.96875 
Q 64.546875 4.390625 57.125 1.578125 
Q 49.703125 -1.21875 41.890625 -1.21875 
Q 31.34375 -1.21875 22.71875 3.296875 
Q 14.109375 7.8125 9.71875 16.359375 
Q 5.328125 24.90625 5.328125 35.453125 
Q 5.328125 45.90625 9.6875 54.953125 
Q 14.0625 64.015625 22.265625 68.40625 
Q 30.46875 72.796875 41.15625 72.796875 
Q 48.921875 72.796875 55.1875 70.28125 
Q 61.46875 67.78125 65.03125 63.28125 
Q 68.609375 58.796875 70.453125 51.5625 
L 61.921875 49.21875 
Q 60.296875 54.6875 57.90625 57.8125 
Q 55.515625 60.9375 51.0625 62.8125 
Q 46.625 64.703125 41.21875 64.703125 
Q 34.71875 64.703125 29.984375 62.71875 
Q 25.25 60.75 22.34375 57.515625 
Q 19.4375 54.296875 17.828125 50.4375 
Q 15.09375 43.796875 15.09375 36.03125 
Q 15.09375 26.46875 18.390625 20.015625 
Q 21.6875 13.578125 27.984375 10.453125 
Q 34.28125 7.328125 41.359375 7.328125 
Q 47.515625 7.328125 53.375 9.6875 
Q 59.234375 12.0625 62.25 14.75 
L 62.25 28.078125 
z
" id="ArialMT-47"/>
     <path d="M 14.59375 21.578125 
Q 14.59375 15.578125 16.90625 11.015625 
Q 19.234375 6.453125 23.65625 3.875 
Q 28.078125 1.3125 34.078125 1.3125 
Q 40.375 1.3125 46.203125 4.53125 
Q 52.046875 7.765625 56.171875 13.15625 
Q 60.296875 18.5625 61.8125 24.609375 
Q 62.015625 25.203125 62.59375 25.203125 
L 63.8125 25.203125 
Q 64.203125 25.203125 64.453125 24.921875 
Q 64.703125 24.65625 64.703125 24.3125 
Q 64.703125 24.21875 64.59375 24.03125 
Q 62.890625 17.09375 57.984375 11.015625 
Q 53.078125 4.9375 46.234375 1.359375 
Q 39.40625 -2.203125 32.171875 -2.203125 
Q 24.359375 -2.203125 18.15625 1.3125 
Q 11.96875 4.828125 8.515625 11.078125 
Q 5.078125 17.328125 5.078125 25.203125 
Q 5.078125 33.59375 8.828125 41.8125 
Q 12.59375 50.046875 18.9375 56.46875 
Q 25.296875 62.890625 33.421875 66.703125 
Q 41.546875 70.515625 49.90625 70.515625 
Q 53.21875 70.515625 56.25 69.5 
Q 59.28125 68.5 61.859375 66.453125 
Q 64.453125 64.40625 66.109375 61.71875 
L 74.03125 70.3125 
Q 74.03125 70.515625 74.515625 70.515625 
L 75.09375 70.515625 
Q 75.484375 70.515625 75.734375 70.171875 
Q 75.984375 69.828125 75.984375 69.484375 
L 69.1875 42.484375 
Q 69.1875 41.796875 68.40625 41.796875 
L 66.609375 41.796875 
Q 65.828125 41.796875 65.828125 42.921875 
Q 66.21875 45.125 66.21875 48.1875 
Q 66.21875 53.078125 64.546875 57.390625 
Q 62.890625 61.71875 59.390625 64.359375 
Q 55.90625 67 50.875 67 
Q 42.71875 67 35.9375 62.890625 
Q 29.15625 58.796875 24.4375 52.125 
Q 19.734375 45.453125 17.15625 37.328125 
Q 14.59375 29.203125 14.59375 21.578125 
" id="Cmmi10-43"/>
     <path d="M 4.15625 35.296875 
Q 4.15625 48 6.765625 55.734375 
Q 9.375 63.484375 14.515625 67.671875 
Q 19.671875 71.875 27.484375 71.875 
Q 33.25 71.875 37.59375 69.546875 
Q 41.9375 67.234375 44.765625 62.859375 
Q 47.609375 58.5 49.21875 52.21875 
Q 50.828125 45.953125 50.828125 35.296875 
Q 50.828125 22.703125 48.234375 14.96875 
Q 45.65625 7.234375 40.5 3 
Q 35.359375 -1.21875 27.484375 -1.21875 
Q 17.140625 -1.21875 11.234375 6.203125 
Q 4.15625 15.140625 4.15625 35.296875 
M 13.1875 35.296875 
Q 13.1875 17.671875 17.3125 11.828125 
Q 21.4375 6 27.484375 6 
Q 33.546875 6 37.671875 11.859375 
Q 41.796875 17.71875 41.796875 35.296875 
Q 41.796875 52.984375 37.671875 58.78125 
Q 33.546875 64.59375 27.390625 64.59375 
Q 21.34375 64.59375 17.71875 59.46875 
Q 13.1875 52.9375 13.1875 35.296875 
" id="ArialMT-30"/>
     <path d="M 4.734375 62.203125 
L 4.734375 70.65625 
L 51.078125 70.65625 
L 51.078125 63.8125 
Q 44.234375 56.546875 37.515625 44.484375 
Q 30.8125 32.421875 27.15625 19.671875 
Q 24.515625 10.6875 23.78125 0 
L 14.75 0 
Q 14.890625 8.453125 18.0625 20.40625 
Q 21.234375 32.375 27.171875 43.484375 
Q 33.109375 54.59375 39.796875 62.203125 
z
" id="ArialMT-37"/>
    </defs>
    <g style="fill:#262626;" transform="translate(150.228 16.6)scale(0.096 -0.096)">
     <use transform="translate(0.0 0.203125)" xlink:href="#Cmmi10-50"/>
     <use transform="translate(64.208984375 0.203125)" xlink:href="#Cmmi10-54"/>
     <use transform="translate(122.607421875 -16.803125)scale(0.7)" xlink:href="#Cmr10-32"/>
     <use transform="translate(163.984765625 0.203125)" xlink:href="#Cmmi10-50"/>
     <use transform="translate(228.19375 0.203125)" xlink:href="#Cmmi10-43"/>
     <use transform="translate(299.58046875 0.203125)" xlink:href="#ArialMT-2c"/>
     <use transform="translate(327.363671875 0.203125)" xlink:href="#ArialMT-20"/>
     <use transform="translate(355.146875 0.203125)" xlink:href="#ArialMT-49"/>
     <use transform="translate(382.930078125 0.203125)" xlink:href="#ArialMT-47"/>
     <use transform="translate(460.71328125 0.203125)" xlink:href="#ArialMT-3d"/>
     <use transform="translate(519.11171875 0.203125)" xlink:href="#ArialMT-30"/>
     <use transform="translate(574.726953125 0.203125)" xlink:href="#ArialMT-2e"/>
     <use transform="translate(602.51015625 0.203125)" xlink:href="#ArialMT-31"/>
     <use transform="translate(658.125390625 0.203125)" xlink:href="#ArialMT-37"/>
    </g>
   </g>
  </g>
  <g id="axes_2">
   <g id="matplotlib.axis_3">
    <g id="xtick_5">
     <g id="line2d_7">
      <g>
       <use style="fill:#262626;stroke:#262626;stroke-width:0.8;" x="79.875" xlink:href="#m4a3e378ff6" y="129.917647059"/>
      </g>
     </g>
    </g>
    <g id="xtick_6">
     <g id="line2d_8">
      <g>
       <use style="fill:#262626;stroke:#262626;stroke-width:0.8;" x="149.625" xlink:href="#m4a3e378ff6" y="129.917647059"/>
      </g>
     </g>
    </g>
    <g id="xtick_7">
     <g id="line2d_9">
      <g>
       <use style="fill:#262626;stroke:#262626;stroke-width:0.8;" x="219.375" xlink:href="#m4a3e378ff6" y="129.917647059"/>
      </g>
     </g>
    </g>
    <g id="xtick_8">
     <g id="line2d_10">
      <g>
       <use style="fill:#262626;stroke:#262626;stroke-width:0.8;" x="289.125" xlink:href="#m4a3e378ff6" y="129.917647059"/>
      </g>
     </g>
    </g>
   </g>
   <g id="matplotlib.axis_4">
    <g id="ytick_3">
     <g id="line2d_11">
      <g>
       <use style="fill:#262626;stroke:#262626;stroke-width:0.8;" x="45.0" xlink:href="#m4a3e378ff6" y="117.608823529"/>
      </g>
     </g>
    </g>
    <g id="ytick_4">
     <g id="line2d_12">
      <g>
       <use style="fill:#262626;stroke:#262626;stroke-width:0.8;" x="45.0" xlink:href="#m4a3e378ff6" y="92.9911764706"/>
      </g>
     </g>
    </g>
   </g>
   <g id="QuadMesh_2">
    <path clip-path="url(#pc36f30a682)" d="M 45 129.917647 
L 114.75 129.917647 
L 114.75 105.3 
L 45 105.3 
L 45 129.917647 
" style="fill:#abd0e6;fill-opacity:0.8;"/>
    <path clip-path="url(#pc36f30a682)" d="M 114.75 129.917647 
L 184.5 129.917647 
L 184.5 105.3 
L 114.75 105.3 
L 114.75 129.917647 
" style="fill:#ccdff1;fill-opacity:0.8;"/>
    <path clip-path="url(#pc36f30a682)" d="M 184.5 129.917647 
L 254.25 129.917647 
L 254.25 105.3 
L 184.5 105.3 
L 184.5 129.917647 
" style="fill:#f7fbff;fill-opacity:0.8;"/>
    <path clip-path="url(#pc36f30a682)" d="M 254.25 129.917647 
L 324 129.917647 
L 324 105.3 
L 254.25 105.3 
L 254.25 129.917647 
" style="fill:#e1edf8;fill-opacity:0.8;"/>
    <path clip-path="url(#pc36f30a682)" d="M 45 105.3 
L 114.75 105.3 
L 114.75 80.682353 
L 45 80.682353 
L 45 105.3 
" style="fill:#08306b;fill-opacity:0.8;"/>
    <path clip-path="url(#pc36f30a682)" d="M 114.75 105.3 
L 184.5 105.3 
L 184.5 80.682353 
L 114.75 80.682353 
L 114.75 105.3 
" style="fill:#1b69af;fill-opacity:0.8;"/>
    <path clip-path="url(#pc36f30a682)" d="M 184.5 105.3 
L 254.25 105.3 
L 254.25 80.682353 
L 184.5 80.682353 
L 184.5 105.3 
" style="fill:#abd0e6;fill-opacity:0.8;"/>
    <path clip-path="url(#pc36f30a682)" d="M 254.25 105.3 
L 324 105.3 
L 324 80.682353 
L 254.25 80.682353 
L 254.25 105.3 
" style="fill:#f7fbff;fill-opacity:0.8;"/>
   </g>
   <g id="text_16">
    <!-- 3 -->
    <g style="fill:#ffffff;" transform="translate(77.20575 120.097323529)scale(0.096 -0.096)">
     <use xlink:href="#Arial-BoldMT-33"/>
    </g>
   </g>
   <g id="text_17">
    <!-- 2 -->
    <g style="fill:#ffffff;" transform="translate(146.95575 120.097323529)scale(0.096 -0.096)">
     <use xlink:href="#Arial-BoldMT-32"/>
    </g>
   </g>
   <g id="text_18">
    <!-- 0 -->
    <g style="fill:#ffffff;" transform="translate(216.70575 120.097323529)scale(0.096 -0.096)">
     <use xlink:href="#Arial-BoldMT-30"/>
    </g>
   </g>
   <g id="text_19">
    <!-- 1 -->
    <g style="fill:#ffffff;" transform="translate(286.45575 120.097323529)scale(0.096 -0.096)">
     <use xlink:href="#Arial-BoldMT-31"/>
    </g>
   </g>
   <g id="text_20">
    <!-- 9 -->
    <defs>
     <path d="M 4.546875 16.546875 
L 17.828125 18.015625 
Q 18.3125 13.96875 20.359375 12.015625 
Q 22.40625 10.0625 25.78125 10.0625 
Q 30.03125 10.0625 33 13.96875 
Q 35.984375 17.875 36.8125 30.171875 
Q 31.640625 24.171875 23.875 24.171875 
Q 15.4375 24.171875 9.296875 30.6875 
Q 3.171875 37.203125 3.171875 47.65625 
Q 3.171875 58.546875 9.640625 65.203125 
Q 16.109375 71.875 26.125 71.875 
Q 37.015625 71.875 44 63.453125 
Q 50.984375 55.03125 50.984375 35.75 
Q 50.984375 16.109375 43.703125 7.421875 
Q 36.421875 -1.265625 24.75 -1.265625 
Q 16.359375 -1.265625 11.171875 3.203125 
Q 6 7.671875 4.546875 16.546875 
M 35.59375 46.53125 
Q 35.59375 53.171875 32.546875 56.828125 
Q 29.5 60.5 25.484375 60.5 
Q 21.6875 60.5 19.171875 57.5 
Q 16.65625 54.5 16.65625 47.65625 
Q 16.65625 40.71875 19.390625 37.46875 
Q 22.125 34.234375 26.21875 34.234375 
Q 30.171875 34.234375 32.875 37.359375 
Q 35.59375 40.484375 35.59375 46.53125 
" id="Arial-BoldMT-39"/>
    </defs>
    <g style="fill:#ffffff;" transform="translate(77.20575 95.4796764706)scale(0.096 -0.096)">
     <use xlink:href="#Arial-BoldMT-39"/>
    </g>
   </g>
   <g id="text_21">
    <!-- 7 -->
    <defs>
     <path d="M 4.25 57.859375 
L 4.25 70.609375 
L 51.171875 70.609375 
L 51.171875 60.640625 
Q 45.359375 54.9375 39.34375 44.234375 
Q 33.34375 33.546875 30.1875 21.5 
Q 27.046875 9.46875 27.09375 0 
L 13.875 0 
Q 14.203125 14.84375 19.984375 30.265625 
Q 25.78125 45.703125 35.453125 57.859375 
z
" id="Arial-BoldMT-37"/>
    </defs>
    <g style="fill:#ffffff;" transform="translate(146.95575 95.4796764706)scale(0.096 -0.096)">
     <use xlink:href="#Arial-BoldMT-37"/>
    </g>
   </g>
   <g id="text_22">
    <!-- 3 -->
    <g style="fill:#ffffff;" transform="translate(216.70575 95.4796764706)scale(0.096 -0.096)">
     <use xlink:href="#Arial-BoldMT-33"/>
    </g>
   </g>
   <g id="text_23">
    <!-- 0 -->
    <g style="fill:#ffffff;" transform="translate(286.45575 95.4796764706)scale(0.096 -0.096)">
     <use xlink:href="#Arial-BoldMT-30"/>
    </g>
   </g>
   <g id="text_24">
    <!-- $CT_2PT_2P$, IG=0.15 -->
    <defs>
     <path d="M 4.15625 18.75 
L 13.375 19.53125 
Q 14.40625 12.796875 18.140625 9.390625 
Q 21.875 6 27.15625 6 
Q 33.5 6 37.890625 10.78125 
Q 42.28125 15.578125 42.28125 23.484375 
Q 42.28125 31 38.0625 35.34375 
Q 33.84375 39.703125 27 39.703125 
Q 22.75 39.703125 19.328125 37.765625 
Q 15.921875 35.84375 13.96875 32.765625 
L 5.71875 33.84375 
L 12.640625 70.609375 
L 48.25 70.609375 
L 48.25 62.203125 
L 19.671875 62.203125 
L 15.828125 42.96875 
Q 22.265625 47.46875 29.34375 47.46875 
Q 38.71875 47.46875 45.15625 40.96875 
Q 51.609375 34.46875 51.609375 24.265625 
Q 51.609375 14.546875 45.953125 7.46875 
Q 39.0625 -1.21875 27.15625 -1.21875 
Q 17.390625 -1.21875 11.203125 4.25 
Q 5.03125 9.71875 4.15625 18.75 
" id="ArialMT-35"/>
    </defs>
    <g style="fill:#262626;" transform="translate(145.428 75.6823529412)scale(0.096 -0.096)">
     <use transform="translate(0.0 0.203125)" xlink:href="#Cmmi10-43"/>
     <use transform="translate(71.38671875 0.203125)" xlink:href="#Cmmi10-54"/>
     <use transform="translate(129.78515625 -16.803125)scale(0.7)" xlink:href="#Cmr10-32"/>
     <use transform="translate(171.1625 0.203125)" xlink:href="#Cmmi10-50"/>
     <use transform="translate(235.371484375 0.203125)" xlink:href="#Cmmi10-54"/>
     <use transform="translate(293.769921875 -16.803125)scale(0.7)" xlink:href="#Cmr10-32"/>
     <use transform="translate(335.147265625 0.203125)" xlink:href="#Cmmi10-50"/>
     <use transform="translate(399.35625 0.203125)" xlink:href="#ArialMT-2c"/>
     <use transform="translate(427.139453125 0.203125)" xlink:href="#ArialMT-20"/>
     <use transform="translate(454.92265625 0.203125)" xlink:href="#ArialMT-49"/>
     <use transform="translate(482.705859375 0.203125)" xlink:href="#ArialMT-47"/>
     <use transform="translate(560.4890625 0.203125)" xlink:href="#ArialMT-3d"/>
     <use transform="translate(618.8875 0.203125)" xlink:href="#ArialMT-30"/>
     <use transform="translate(674.502734375 0.203125)" xlink:href="#ArialMT-2e"/>
     <use transform="translate(702.2859375 0.203125)" xlink:href="#ArialMT-31"/>
     <use transform="translate(757.901171875 0.203125)" xlink:href="#ArialMT-35"/>
    </g>
   </g>
  </g>
  <g id="axes_3">
   <g id="matplotlib.axis_5">
    <g id="xtick_9">
     <g id="line2d_13">
      <g>
       <use style="fill:#262626;stroke:#262626;stroke-width:0.8;" x="79.875" xlink:href="#m4a3e378ff6" y="189.0"/>
      </g>
     </g>
    </g>
    <g id="xtick_10">
     <g id="line2d_14">
      <g>
       <use style="fill:#262626;stroke:#262626;stroke-width:0.8;" x="149.625" xlink:href="#m4a3e378ff6" y="189.0"/>
      </g>
     </g>
    </g>
    <g id="xtick_11">
     <g id="line2d_15">
      <g>
       <use style="fill:#262626;stroke:#262626;stroke-width:0.8;" x="219.375" xlink:href="#m4a3e378ff6" y="189.0"/>
      </g>
     </g>
    </g>
    <g id="xtick_12">
     <g id="line2d_16">
      <g>
       <use style="fill:#262626;stroke:#262626;stroke-width:0.8;" x="289.125" xlink:href="#m4a3e378ff6" y="189.0"/>
      </g>
     </g>
    </g>
   </g>
   <g id="matplotlib.axis_6">
    <g id="ytick_5">
     <g id="line2d_17">
      <g>
       <use style="fill:#262626;stroke:#262626;stroke-width:0.8;" x="45.0" xlink:href="#m4a3e378ff6" y="176.691176471"/>
      </g>
     </g>
    </g>
    <g id="ytick_6">
     <g id="line2d_18">
      <g>
       <use style="fill:#262626;stroke:#262626;stroke-width:0.8;" x="45.0" xlink:href="#m4a3e378ff6" y="152.073529412"/>
      </g>
     </g>
    </g>
   </g>
   <g id="QuadMesh_3">
    <path clip-path="url(#pfbb526d1ba)" d="M 45 189 
L 114.75 189 
L 114.75 164.382353 
L 45 164.382353 
L 45 189 
" style="fill:#08306b;fill-opacity:0.8;"/>
    <path clip-path="url(#pfbb526d1ba)" d="M 114.75 189 
L 184.5 189 
L 184.5 164.382353 
L 114.75 164.382353 
L 114.75 189 
" style="fill:#89bedc;fill-opacity:0.8;"/>
    <path clip-path="url(#pfbb526d1ba)" d="M 184.5 189 
L 254.25 189 
L 254.25 164.382353 
L 184.5 164.382353 
L 184.5 189 
" style="fill:#bad6eb;fill-opacity:0.8;"/>
    <path clip-path="url(#pfbb526d1ba)" d="M 254.25 189 
L 324 189 
L 324 164.382353 
L 254.25 164.382353 
L 254.25 189 
" style="fill:#89bedc;fill-opacity:0.8;"/>
    <path clip-path="url(#pfbb526d1ba)" d="M 45 164.382353 
L 114.75 164.382353 
L 114.75 139.764706 
L 45 139.764706 
L 45 164.382353 
" style="fill:#bad6eb;fill-opacity:0.8;"/>
    <path clip-path="url(#pfbb526d1ba)" d="M 114.75 164.382353 
L 184.5 164.382353 
L 184.5 139.764706 
L 114.75 139.764706 
L 114.75 164.382353 
" style="fill:#bad6eb;fill-opacity:0.8;"/>
    <path clip-path="url(#pfbb526d1ba)" d="M 184.5 164.382353 
L 254.25 164.382353 
L 254.25 139.764706 
L 184.5 139.764706 
L 184.5 164.382353 
" style="fill:#dbe9f6;fill-opacity:0.8;"/>
    <path clip-path="url(#pfbb526d1ba)" d="M 254.25 164.382353 
L 324 164.382353 
L 324 139.764706 
L 254.25 139.764706 
L 254.25 164.382353 
" style="fill:#dbe9f6;fill-opacity:0.8;"/>
   </g>
   <g id="text_25">
    <!-- 7 -->
    <g style="fill:#ffffff;" transform="translate(77.20575 179.179676471)scale(0.096 -0.096)">
     <use xlink:href="#Arial-BoldMT-37"/>
    </g>
   </g>
   <g id="text_26">
    <!-- 3 -->
    <g style="fill:#ffffff;" transform="translate(146.95575 179.179676471)scale(0.096 -0.096)">
     <use xlink:href="#Arial-BoldMT-33"/>
    </g>
   </g>
   <g id="text_27">
    <!-- 2 -->
    <g style="fill:#ffffff;" transform="translate(216.70575 179.179676471)scale(0.096 -0.096)">
     <use xlink:href="#Arial-BoldMT-32"/>
    </g>
   </g>
   <g id="text_28">
    <!-- 3 -->
    <g style="fill:#ffffff;" transform="translate(286.45575 179.179676471)scale(0.096 -0.096)">
     <use xlink:href="#Arial-BoldMT-33"/>
    </g>
   </g>
   <g id="text_29">
    <!-- 2 -->
    <g style="fill:#ffffff;" transform="translate(77.20575 154.562029412)scale(0.096 -0.096)">
     <use xlink:href="#Arial-BoldMT-32"/>
    </g>
   </g>
   <g id="text_30">
    <!-- 2 -->
    <g style="fill:#ffffff;" transform="translate(146.95575 154.562029412)scale(0.096 -0.096)">
     <use xlink:href="#Arial-BoldMT-32"/>
    </g>
   </g>
   <g id="text_31">
    <!-- 1 -->
    <g style="fill:#ffffff;" transform="translate(216.70575 154.562029412)scale(0.096 -0.096)">
     <use xlink:href="#Arial-BoldMT-31"/>
    </g>
   </g>
   <g id="text_32">
    <!-- 1 -->
    <g style="fill:#ffffff;" transform="translate(286.45575 154.562029412)scale(0.096 -0.096)">
     <use xlink:href="#Arial-BoldMT-31"/>
    </g>
   </g>
   <g id="text_33">
    <!-- $CPCT_2C$, IG=0.15 -->
    <g style="fill:#262626;" transform="translate(146.436 134.764705882)scale(0.096 -0.096)">
     <use transform="translate(0.0 0.203125)" xlink:href="#Cmmi10-43"/>
     <use transform="translate(71.38671875 0.203125)" xlink:href="#Cmmi10-50"/>
     <use transform="translate(135.595703125 0.203125)" xlink:href="#Cmmi10-43"/>
     <use transform="translate(206.982421875 0.203125)" xlink:href="#Cmmi10-54"/>
     <use transform="translate(265.380859375 -16.803125)scale(0.7)" xlink:href="#Cmr10-32"/>
     <use transform="translate(306.758203125 0.203125)" xlink:href="#Cmmi10-43"/>
     <use transform="translate(378.144921875 0.203125)" xlink:href="#ArialMT-2c"/>
     <use transform="translate(405.928125 0.203125)" xlink:href="#ArialMT-20"/>
     <use transform="translate(433.711328125 0.203125)" xlink:href="#ArialMT-49"/>
     <use transform="translate(461.49453125 0.203125)" xlink:href="#ArialMT-47"/>
     <use transform="translate(539.277734375 0.203125)" xlink:href="#ArialMT-3d"/>
     <use transform="translate(597.676171875 0.203125)" xlink:href="#ArialMT-30"/>
     <use transform="translate(653.29140625 0.203125)" xlink:href="#ArialMT-2e"/>
     <use transform="translate(681.074609375 0.203125)" xlink:href="#ArialMT-31"/>
     <use transform="translate(736.68984375 0.203125)" xlink:href="#ArialMT-35"/>
    </g>
   </g>
  </g>
 </g>
 <defs>
  <clipPath id="p04b61366f4">
   <rect height="49.2352941176" width="279.0" x="45.0" y="21.6"/>
  </clipPath>
  <clipPath id="pfbb526d1ba">
   <rect height="49.2352941176" width="279.0" x="45.0" y="139.764705882"/>
  </clipPath>
  <clipPath id="pc36f30a682">
   <rect height="49.2352941176" width="279.0" x="45.0" y="80.6823529412"/>
  </clipPath>
 </defs>
</svg>
