<?xml version="1.0" encoding="utf-8" standalone="no"?>
<!DOCTYPE svg PUBLIC "-//W3C//DTD SVG 1.1//EN"
  "http://www.w3.org/Graphics/SVG/1.1/DTD/svg11.dtd">
<!-- Created with matplotlib (http://matplotlib.org/) -->
<svg height="180pt" version="1.1" viewBox="0 0 324 180" width="324pt" xmlns="http://www.w3.org/2000/svg" xmlns:xlink="http://www.w3.org/1999/xlink">
 <defs>
  <style type="text/css">
*{stroke-linecap:butt;stroke-linejoin:round;stroke-miterlimit:100000;}
  </style>
 </defs>
 <g id="figure_1">
  <g id="patch_1">
   <path d="M 0 180 
L 324 180 
L 324 0 
L 0 0 
z
" style="fill:#ffffff;"/>
  </g>
  <g id="axes_1">
   <g id="patch_2">
    <path d="M 40.5 157.5 
L 291.6 157.5 
L 291.6 18 
L 40.5 18 
z
" style="fill:#eaeaf2;"/>
   </g>
   <g id="matplotlib.axis_1">
    <g id="xtick_1">
     <g id="line2d_1">
      <path clip-path="url(#p91b48f435f)" d="M 40.5 157.5 
L 40.5 18 
" style="fill:none;stroke:#ffffff;stroke-linecap:round;stroke-width:0.8;"/>
     </g>
     <g id="line2d_2">
      <defs>
       <path d="M 0 0 
L 0 0 
" id="m35ff70d7e7" style="stroke:#262626;stroke-width:0.8;"/>
      </defs>
      <g>
       <use style="fill:#262626;stroke:#262626;stroke-width:0.8;" x="40.5" xlink:href="#m35ff70d7e7" y="157.5"/>
      </g>
     </g>
     <g id="line2d_3">
      <g>
       <use style="fill:#262626;stroke:#262626;stroke-width:0.8;" x="40.5" xlink:href="#m35ff70d7e7" y="18.0"/>
      </g>
     </g>
     <g id="text_1">
      <!-- −2.0 -->
      <defs>
       <path d="M 9.078125 0 
L 9.078125 10.015625 
L 19.09375 10.015625 
L 19.09375 0 
z
" id="ArialMT-2e"/>
       <path d="M 4.15625 35.296875 
Q 4.15625 48 6.765625 55.734375 
Q 9.375 63.484375 14.515625 67.671875 
Q 19.671875 71.875 27.484375 71.875 
Q 33.25 71.875 37.59375 69.546875 
Q 41.9375 67.234375 44.765625 62.859375 
Q 47.609375 58.5 49.21875 52.21875 
Q 50.828125 45.953125 50.828125 35.296875 
Q 50.828125 22.703125 48.234375 14.96875 
Q 45.65625 7.234375 40.5 3 
Q 35.359375 -1.21875 27.484375 -1.21875 
Q 17.140625 -1.21875 11.234375 6.203125 
Q 4.15625 15.140625 4.15625 35.296875 
M 13.1875 35.296875 
Q 13.1875 17.671875 17.3125 11.828125 
Q 21.4375 6 27.484375 6 
Q 33.546875 6 37.671875 11.859375 
Q 41.796875 17.71875 41.796875 35.296875 
Q 41.796875 52.984375 37.671875 58.78125 
Q 33.546875 64.59375 27.390625 64.59375 
Q 21.34375 64.59375 17.71875 59.46875 
Q 13.1875 52.9375 13.1875 35.296875 
" id="ArialMT-30"/>
       <path d="M 52.828125 31.203125 
L 5.5625 31.203125 
L 5.5625 39.40625 
L 52.828125 39.40625 
z
" id="ArialMT-2212"/>
       <path d="M 50.34375 8.453125 
L 50.34375 0 
L 3.03125 0 
Q 2.9375 3.171875 4.046875 6.109375 
Q 5.859375 10.9375 9.828125 15.625 
Q 13.8125 20.3125 21.34375 26.46875 
Q 33.015625 36.03125 37.109375 41.625 
Q 41.21875 47.21875 41.21875 52.203125 
Q 41.21875 57.421875 37.46875 61 
Q 33.734375 64.59375 27.734375 64.59375 
Q 21.390625 64.59375 17.578125 60.78125 
Q 13.765625 56.984375 13.71875 50.25 
L 4.6875 51.171875 
Q 5.609375 61.28125 11.65625 66.578125 
Q 17.71875 71.875 27.9375 71.875 
Q 38.234375 71.875 44.234375 66.15625 
Q 50.25 60.453125 50.25 52 
Q 50.25 47.703125 48.484375 43.546875 
Q 46.734375 39.40625 42.65625 34.8125 
Q 38.578125 30.21875 29.109375 22.21875 
Q 21.1875 15.578125 18.9375 13.203125 
Q 16.703125 10.84375 15.234375 8.453125 
z
" id="ArialMT-32"/>
      </defs>
      <g style="fill:#262626;" transform="translate(32.60375 168.82625)scale(0.08 -0.08)">
       <use xlink:href="#ArialMT-2212"/>
       <use x="58.3984375" xlink:href="#ArialMT-32"/>
       <use x="114.013671875" xlink:href="#ArialMT-2e"/>
       <use x="141.796875" xlink:href="#ArialMT-30"/>
      </g>
     </g>
    </g>
    <g id="xtick_2">
     <g id="line2d_4">
      <path clip-path="url(#p91b48f435f)" d="M 71.8875 157.5 
L 71.8875 18 
" style="fill:none;stroke:#ffffff;stroke-linecap:round;stroke-width:0.8;"/>
     </g>
     <g id="line2d_5">
      <g>
       <use style="fill:#262626;stroke:#262626;stroke-width:0.8;" x="71.8875" xlink:href="#m35ff70d7e7" y="157.5"/>
      </g>
     </g>
     <g id="line2d_6">
      <g>
       <use style="fill:#262626;stroke:#262626;stroke-width:0.8;" x="71.8875" xlink:href="#m35ff70d7e7" y="18.0"/>
      </g>
     </g>
     <g id="text_2">
      <!-- −1.5 -->
      <defs>
       <path d="M 37.25 0 
L 28.46875 0 
L 28.46875 56 
Q 25.296875 52.984375 20.140625 49.953125 
Q 14.984375 46.921875 10.890625 45.40625 
L 10.890625 53.90625 
Q 18.265625 57.375 23.78125 62.296875 
Q 29.296875 67.234375 31.59375 71.875 
L 37.25 71.875 
z
" id="ArialMT-31"/>
       <path d="M 4.15625 18.75 
L 13.375 19.53125 
Q 14.40625 12.796875 18.140625 9.390625 
Q 21.875 6 27.15625 6 
Q 33.5 6 37.890625 10.78125 
Q 42.28125 15.578125 42.28125 23.484375 
Q 42.28125 31 38.0625 35.34375 
Q 33.84375 39.703125 27 39.703125 
Q 22.75 39.703125 19.328125 37.765625 
Q 15.921875 35.84375 13.96875 32.765625 
L 5.71875 33.84375 
L 12.640625 70.609375 
L 48.25 70.609375 
L 48.25 62.203125 
L 19.671875 62.203125 
L 15.828125 42.96875 
Q 22.265625 47.46875 29.34375 47.46875 
Q 38.71875 47.46875 45.15625 40.96875 
Q 51.609375 34.46875 51.609375 24.265625 
Q 51.609375 14.546875 45.953125 7.46875 
Q 39.0625 -1.21875 27.15625 -1.21875 
Q 17.390625 -1.21875 11.203125 4.25 
Q 5.03125 9.71875 4.15625 18.75 
" id="ArialMT-35"/>
      </defs>
      <g style="fill:#262626;" transform="translate(63.99125 168.82625)scale(0.08 -0.08)">
       <use xlink:href="#ArialMT-2212"/>
       <use x="58.3984375" xlink:href="#ArialMT-31"/>
       <use x="114.013671875" xlink:href="#ArialMT-2e"/>
       <use x="141.796875" xlink:href="#ArialMT-35"/>
      </g>
     </g>
    </g>
    <g id="xtick_3">
     <g id="line2d_7">
      <path clip-path="url(#p91b48f435f)" d="M 103.275 157.5 
L 103.275 18 
" style="fill:none;stroke:#ffffff;stroke-linecap:round;stroke-width:0.8;"/>
     </g>
     <g id="line2d_8">
      <g>
       <use style="fill:#262626;stroke:#262626;stroke-width:0.8;" x="103.275" xlink:href="#m35ff70d7e7" y="157.5"/>
      </g>
     </g>
     <g id="line2d_9">
      <g>
       <use style="fill:#262626;stroke:#262626;stroke-width:0.8;" x="103.275" xlink:href="#m35ff70d7e7" y="18.0"/>
      </g>
     </g>
     <g id="text_3">
      <!-- −1.0 -->
      <g style="fill:#262626;" transform="translate(95.37875 168.82625)scale(0.08 -0.08)">
       <use xlink:href="#ArialMT-2212"/>
       <use x="58.3984375" xlink:href="#ArialMT-31"/>
       <use x="114.013671875" xlink:href="#ArialMT-2e"/>
       <use x="141.796875" xlink:href="#ArialMT-30"/>
      </g>
     </g>
    </g>
    <g id="xtick_4">
     <g id="line2d_10">
      <path clip-path="url(#p91b48f435f)" d="M 134.6625 157.5 
L 134.6625 18 
" style="fill:none;stroke:#ffffff;stroke-linecap:round;stroke-width:0.8;"/>
     </g>
     <g id="line2d_11">
      <g>
       <use style="fill:#262626;stroke:#262626;stroke-width:0.8;" x="134.6625" xlink:href="#m35ff70d7e7" y="157.5"/>
      </g>
     </g>
     <g id="line2d_12">
      <g>
       <use style="fill:#262626;stroke:#262626;stroke-width:0.8;" x="134.6625" xlink:href="#m35ff70d7e7" y="18.0"/>
      </g>
     </g>
     <g id="text_4">
      <!-- −0.5 -->
      <g style="fill:#262626;" transform="translate(126.76625 168.82625)scale(0.08 -0.08)">
       <use xlink:href="#ArialMT-2212"/>
       <use x="58.3984375" xlink:href="#ArialMT-30"/>
       <use x="114.013671875" xlink:href="#ArialMT-2e"/>
       <use x="141.796875" xlink:href="#ArialMT-35"/>
      </g>
     </g>
    </g>
    <g id="xtick_5">
     <g id="line2d_13">
      <path clip-path="url(#p91b48f435f)" d="M 166.05 157.5 
L 166.05 18 
" style="fill:none;stroke:#ffffff;stroke-linecap:round;stroke-width:0.8;"/>
     </g>
     <g id="line2d_14">
      <g>
       <use style="fill:#262626;stroke:#262626;stroke-width:0.8;" x="166.05" xlink:href="#m35ff70d7e7" y="157.5"/>
      </g>
     </g>
     <g id="line2d_15">
      <g>
       <use style="fill:#262626;stroke:#262626;stroke-width:0.8;" x="166.05" xlink:href="#m35ff70d7e7" y="18.0"/>
      </g>
     </g>
     <g id="text_5">
      <!-- 0.0 -->
      <g style="fill:#262626;" transform="translate(160.49 168.82625)scale(0.08 -0.08)">
       <use xlink:href="#ArialMT-30"/>
       <use x="55.615234375" xlink:href="#ArialMT-2e"/>
       <use x="83.3984375" xlink:href="#ArialMT-30"/>
      </g>
     </g>
    </g>
    <g id="xtick_6">
     <g id="line2d_16">
      <path clip-path="url(#p91b48f435f)" d="M 197.4375 157.5 
L 197.4375 18 
" style="fill:none;stroke:#ffffff;stroke-linecap:round;stroke-width:0.8;"/>
     </g>
     <g id="line2d_17">
      <g>
       <use style="fill:#262626;stroke:#262626;stroke-width:0.8;" x="197.4375" xlink:href="#m35ff70d7e7" y="157.5"/>
      </g>
     </g>
     <g id="line2d_18">
      <g>
       <use style="fill:#262626;stroke:#262626;stroke-width:0.8;" x="197.4375" xlink:href="#m35ff70d7e7" y="18.0"/>
      </g>
     </g>
     <g id="text_6">
      <!-- 0.5 -->
      <g style="fill:#262626;" transform="translate(191.8775 168.82625)scale(0.08 -0.08)">
       <use xlink:href="#ArialMT-30"/>
       <use x="55.615234375" xlink:href="#ArialMT-2e"/>
       <use x="83.3984375" xlink:href="#ArialMT-35"/>
      </g>
     </g>
    </g>
    <g id="xtick_7">
     <g id="line2d_19">
      <path clip-path="url(#p91b48f435f)" d="M 228.825 157.5 
L 228.825 18 
" style="fill:none;stroke:#ffffff;stroke-linecap:round;stroke-width:0.8;"/>
     </g>
     <g id="line2d_20">
      <g>
       <use style="fill:#262626;stroke:#262626;stroke-width:0.8;" x="228.825" xlink:href="#m35ff70d7e7" y="157.5"/>
      </g>
     </g>
     <g id="line2d_21">
      <g>
       <use style="fill:#262626;stroke:#262626;stroke-width:0.8;" x="228.825" xlink:href="#m35ff70d7e7" y="18.0"/>
      </g>
     </g>
     <g id="text_7">
      <!-- 1.0 -->
      <g style="fill:#262626;" transform="translate(223.265 168.82625)scale(0.08 -0.08)">
       <use xlink:href="#ArialMT-31"/>
       <use x="55.615234375" xlink:href="#ArialMT-2e"/>
       <use x="83.3984375" xlink:href="#ArialMT-30"/>
      </g>
     </g>
    </g>
    <g id="xtick_8">
     <g id="line2d_22">
      <path clip-path="url(#p91b48f435f)" d="M 260.2125 157.5 
L 260.2125 18 
" style="fill:none;stroke:#ffffff;stroke-linecap:round;stroke-width:0.8;"/>
     </g>
     <g id="line2d_23">
      <g>
       <use style="fill:#262626;stroke:#262626;stroke-width:0.8;" x="260.2125" xlink:href="#m35ff70d7e7" y="157.5"/>
      </g>
     </g>
     <g id="line2d_24">
      <g>
       <use style="fill:#262626;stroke:#262626;stroke-width:0.8;" x="260.2125" xlink:href="#m35ff70d7e7" y="18.0"/>
      </g>
     </g>
     <g id="text_8">
      <!-- 1.5 -->
      <g style="fill:#262626;" transform="translate(254.6525 168.82625)scale(0.08 -0.08)">
       <use xlink:href="#ArialMT-31"/>
       <use x="55.615234375" xlink:href="#ArialMT-2e"/>
       <use x="83.3984375" xlink:href="#ArialMT-35"/>
      </g>
     </g>
    </g>
    <g id="xtick_9">
     <g id="line2d_25">
      <path clip-path="url(#p91b48f435f)" d="M 291.6 157.5 
L 291.6 18 
" style="fill:none;stroke:#ffffff;stroke-linecap:round;stroke-width:0.8;"/>
     </g>
     <g id="line2d_26">
      <g>
       <use style="fill:#262626;stroke:#262626;stroke-width:0.8;" x="291.6" xlink:href="#m35ff70d7e7" y="157.5"/>
      </g>
     </g>
     <g id="line2d_27">
      <g>
       <use style="fill:#262626;stroke:#262626;stroke-width:0.8;" x="291.6" xlink:href="#m35ff70d7e7" y="18.0"/>
      </g>
     </g>
     <g id="text_9">
      <!-- 2.0 -->
      <g style="fill:#262626;" transform="translate(286.04 168.82625)scale(0.08 -0.08)">
       <use xlink:href="#ArialMT-32"/>
       <use x="55.615234375" xlink:href="#ArialMT-2e"/>
       <use x="83.3984375" xlink:href="#ArialMT-30"/>
      </g>
     </g>
    </g>
    <g id="text_10">
     <!-- post-test z-score -->
     <defs>
      <path d="M 40.4375 19 
L 49.078125 17.875 
Q 47.65625 8.9375 41.8125 3.875 
Q 35.984375 -1.171875 27.484375 -1.171875 
Q 16.84375 -1.171875 10.375 5.78125 
Q 3.90625 12.75 3.90625 25.734375 
Q 3.90625 34.125 6.6875 40.421875 
Q 9.46875 46.734375 15.15625 49.875 
Q 20.84375 53.03125 27.546875 53.03125 
Q 35.984375 53.03125 41.359375 48.75 
Q 46.734375 44.484375 48.25 36.625 
L 39.703125 35.296875 
Q 38.484375 40.53125 35.375 43.15625 
Q 32.28125 45.796875 27.875 45.796875 
Q 21.234375 45.796875 17.078125 41.03125 
Q 12.9375 36.28125 12.9375 25.984375 
Q 12.9375 15.53125 16.9375 10.796875 
Q 20.953125 6.0625 27.390625 6.0625 
Q 32.5625 6.0625 36.03125 9.234375 
Q 39.5 12.40625 40.4375 19 
" id="ArialMT-63"/>
      <path d="M 42.09375 16.703125 
L 51.171875 15.578125 
Q 49.03125 7.625 43.21875 3.21875 
Q 37.40625 -1.171875 28.375 -1.171875 
Q 17 -1.171875 10.328125 5.828125 
Q 3.65625 12.84375 3.65625 25.484375 
Q 3.65625 38.578125 10.390625 45.796875 
Q 17.140625 53.03125 27.875 53.03125 
Q 38.28125 53.03125 44.875 45.953125 
Q 51.46875 38.875 51.46875 26.03125 
Q 51.46875 25.25 51.421875 23.6875 
L 12.75 23.6875 
Q 13.234375 15.140625 17.578125 10.59375 
Q 21.921875 6.0625 28.421875 6.0625 
Q 33.25 6.0625 36.671875 8.59375 
Q 40.09375 11.140625 42.09375 16.703125 
M 13.234375 30.90625 
L 42.1875 30.90625 
Q 41.609375 37.453125 38.875 40.71875 
Q 34.671875 45.796875 27.984375 45.796875 
Q 21.921875 45.796875 17.796875 41.75 
Q 13.671875 37.703125 13.234375 30.90625 
" id="ArialMT-65"/>
      <path d="M 25.78125 7.859375 
L 27.046875 0.09375 
Q 23.34375 -0.6875 20.40625 -0.6875 
Q 15.625 -0.6875 12.984375 0.828125 
Q 10.359375 2.34375 9.28125 4.8125 
Q 8.203125 7.28125 8.203125 15.1875 
L 8.203125 45.015625 
L 1.765625 45.015625 
L 1.765625 51.859375 
L 8.203125 51.859375 
L 8.203125 64.703125 
L 16.9375 69.96875 
L 16.9375 51.859375 
L 25.78125 51.859375 
L 25.78125 45.015625 
L 16.9375 45.015625 
L 16.9375 14.703125 
Q 16.9375 10.9375 17.40625 9.859375 
Q 17.875 8.796875 18.921875 8.15625 
Q 19.96875 7.515625 21.921875 7.515625 
Q 23.390625 7.515625 25.78125 7.859375 
" id="ArialMT-74"/>
      <path d="M 3.171875 21.484375 
L 3.171875 30.328125 
L 30.171875 30.328125 
L 30.171875 21.484375 
z
" id="ArialMT-2d"/>
      <path d="M 6.59375 -19.875 
L 6.59375 51.859375 
L 14.59375 51.859375 
L 14.59375 45.125 
Q 17.4375 49.078125 21 51.046875 
Q 24.5625 53.03125 29.640625 53.03125 
Q 36.28125 53.03125 41.359375 49.609375 
Q 46.4375 46.1875 49.015625 39.953125 
Q 51.609375 33.734375 51.609375 26.3125 
Q 51.609375 18.359375 48.75 11.984375 
Q 45.90625 5.609375 40.453125 2.21875 
Q 35.015625 -1.171875 29 -1.171875 
Q 24.609375 -1.171875 21.109375 0.6875 
Q 17.625 2.546875 15.375 5.375 
L 15.375 -19.875 
z
M 14.546875 25.640625 
Q 14.546875 15.625 18.59375 10.84375 
Q 22.65625 6.0625 28.421875 6.0625 
Q 34.28125 6.0625 38.453125 11.015625 
Q 42.625 15.96875 42.625 26.375 
Q 42.625 36.28125 38.546875 41.203125 
Q 34.46875 46.140625 28.8125 46.140625 
Q 23.1875 46.140625 18.859375 40.890625 
Q 14.546875 35.640625 14.546875 25.640625 
" id="ArialMT-70"/>
      <path d="M 6.5 0 
L 6.5 51.859375 
L 14.40625 51.859375 
L 14.40625 44 
Q 17.4375 49.515625 20 51.265625 
Q 22.5625 53.03125 25.640625 53.03125 
Q 30.078125 53.03125 34.671875 50.203125 
L 31.640625 42.046875 
Q 28.421875 43.953125 25.203125 43.953125 
Q 22.3125 43.953125 20.015625 42.21875 
Q 17.71875 40.484375 16.75 37.40625 
Q 15.28125 32.71875 15.28125 27.15625 
L 15.28125 0 
z
" id="ArialMT-72"/>
      <path d="M 3.078125 15.484375 
L 11.765625 16.84375 
Q 12.5 11.625 15.84375 8.84375 
Q 19.1875 6.0625 25.203125 6.0625 
Q 31.25 6.0625 34.171875 8.515625 
Q 37.109375 10.984375 37.109375 14.3125 
Q 37.109375 17.28125 34.515625 19 
Q 32.71875 20.171875 25.53125 21.96875 
Q 15.875 24.421875 12.140625 26.203125 
Q 8.40625 27.984375 6.46875 31.125 
Q 4.546875 34.28125 4.546875 38.09375 
Q 4.546875 41.546875 6.125 44.5 
Q 7.71875 47.46875 10.453125 49.421875 
Q 12.5 50.921875 16.03125 51.96875 
Q 19.578125 53.03125 23.640625 53.03125 
Q 29.734375 53.03125 34.34375 51.265625 
Q 38.96875 49.515625 41.15625 46.5 
Q 43.359375 43.5 44.1875 38.484375 
L 35.59375 37.3125 
Q 35.015625 41.3125 32.203125 43.546875 
Q 29.390625 45.796875 24.265625 45.796875 
Q 18.21875 45.796875 15.625 43.796875 
Q 13.03125 41.796875 13.03125 39.109375 
Q 13.03125 37.40625 14.109375 36.03125 
Q 15.1875 34.625 17.484375 33.6875 
Q 18.796875 33.203125 25.25 31.453125 
Q 34.578125 28.953125 38.25 27.359375 
Q 41.9375 25.78125 44.03125 22.75 
Q 46.140625 19.734375 46.140625 15.234375 
Q 46.140625 10.84375 43.578125 6.953125 
Q 41.015625 3.078125 36.171875 0.953125 
Q 31.34375 -1.171875 25.25 -1.171875 
Q 15.140625 -1.171875 9.84375 3.03125 
Q 4.546875 7.234375 3.078125 15.484375 
" id="ArialMT-73"/>
      <path d="M 3.328125 25.921875 
Q 3.328125 40.328125 11.328125 47.265625 
Q 18.015625 53.03125 27.640625 53.03125 
Q 38.328125 53.03125 45.109375 46.015625 
Q 51.90625 39.015625 51.90625 26.65625 
Q 51.90625 16.65625 48.90625 10.90625 
Q 45.90625 5.171875 40.15625 2 
Q 34.421875 -1.171875 27.640625 -1.171875 
Q 16.75 -1.171875 10.03125 5.8125 
Q 3.328125 12.796875 3.328125 25.921875 
M 12.359375 25.921875 
Q 12.359375 15.96875 16.703125 11.015625 
Q 21.046875 6.0625 27.640625 6.0625 
Q 34.1875 6.0625 38.53125 11.03125 
Q 42.875 16.015625 42.875 26.21875 
Q 42.875 35.84375 38.5 40.796875 
Q 34.125 45.75 27.640625 45.75 
Q 21.046875 45.75 16.703125 40.8125 
Q 12.359375 35.890625 12.359375 25.921875 
" id="ArialMT-6f"/>
      <path d="M 1.953125 0 
L 1.953125 7.125 
L 34.96875 45.015625 
Q 29.34375 44.734375 25.046875 44.734375 
L 3.90625 44.734375 
L 3.90625 51.859375 
L 46.296875 51.859375 
L 46.296875 46.046875 
L 18.21875 13.140625 
L 12.796875 7.125 
Q 18.703125 7.5625 23.875 7.5625 
L 47.859375 7.5625 
L 47.859375 0 
z
" id="ArialMT-7a"/>
      <path id="ArialMT-20"/>
     </defs>
     <g style="fill:#262626;" transform="translate(133.53125 181.715125)scale(0.088 -0.088)">
      <use xlink:href="#ArialMT-70"/>
      <use x="55.615234375" xlink:href="#ArialMT-6f"/>
      <use x="111.23046875" xlink:href="#ArialMT-73"/>
      <use x="161.23046875" xlink:href="#ArialMT-74"/>
      <use x="189.013671875" xlink:href="#ArialMT-2d"/>
      <use x="222.314453125" xlink:href="#ArialMT-74"/>
      <use x="250.09765625" xlink:href="#ArialMT-65"/>
      <use x="305.712890625" xlink:href="#ArialMT-73"/>
      <use x="355.712890625" xlink:href="#ArialMT-74"/>
      <use x="383.49609375" xlink:href="#ArialMT-20"/>
      <use x="411.279296875" xlink:href="#ArialMT-7a"/>
      <use x="461.279296875" xlink:href="#ArialMT-2d"/>
      <use x="494.580078125" xlink:href="#ArialMT-73"/>
      <use x="544.580078125" xlink:href="#ArialMT-63"/>
      <use x="594.580078125" xlink:href="#ArialMT-6f"/>
      <use x="650.1953125" xlink:href="#ArialMT-72"/>
      <use x="683.49609375" xlink:href="#ArialMT-65"/>
     </g>
    </g>
   </g>
   <g id="matplotlib.axis_2">
    <g id="ytick_1">
     <g id="line2d_28">
      <path clip-path="url(#p91b48f435f)" d="M 40.5 157.5 
L 291.6 157.5 
" style="fill:none;stroke:#ffffff;stroke-linecap:round;stroke-width:0.8;"/>
     </g>
     <g id="line2d_29">
      <g>
       <use style="fill:#262626;stroke:#262626;stroke-width:0.8;" x="40.5" xlink:href="#m35ff70d7e7" y="157.5"/>
      </g>
     </g>
     <g id="line2d_30">
      <g>
       <use style="fill:#262626;stroke:#262626;stroke-width:0.8;" x="291.6" xlink:href="#m35ff70d7e7" y="157.5"/>
      </g>
     </g>
     <g id="text_11">
      <!-- 0 -->
      <g style="fill:#262626;" transform="translate(30.45125 159.568125)scale(0.08 -0.08)">
       <use xlink:href="#ArialMT-30"/>
      </g>
     </g>
    </g>
    <g id="ytick_2">
     <g id="line2d_31">
      <path clip-path="url(#p91b48f435f)" d="M 40.5 136.038462 
L 291.6 136.038462 
" style="fill:none;stroke:#ffffff;stroke-linecap:round;stroke-width:0.8;"/>
     </g>
     <g id="line2d_32">
      <g>
       <use style="fill:#262626;stroke:#262626;stroke-width:0.8;" x="40.5" xlink:href="#m35ff70d7e7" y="136.038461538"/>
      </g>
     </g>
     <g id="line2d_33">
      <g>
       <use style="fill:#262626;stroke:#262626;stroke-width:0.8;" x="291.6" xlink:href="#m35ff70d7e7" y="136.038461538"/>
      </g>
     </g>
     <g id="text_12">
      <!-- 2 -->
      <g style="fill:#262626;" transform="translate(30.45125 138.106586538)scale(0.08 -0.08)">
       <use xlink:href="#ArialMT-32"/>
      </g>
     </g>
    </g>
    <g id="ytick_3">
     <g id="line2d_34">
      <path clip-path="url(#p91b48f435f)" d="M 40.5 114.576923 
L 291.6 114.576923 
" style="fill:none;stroke:#ffffff;stroke-linecap:round;stroke-width:0.8;"/>
     </g>
     <g id="line2d_35">
      <g>
       <use style="fill:#262626;stroke:#262626;stroke-width:0.8;" x="40.5" xlink:href="#m35ff70d7e7" y="114.576923077"/>
      </g>
     </g>
     <g id="line2d_36">
      <g>
       <use style="fill:#262626;stroke:#262626;stroke-width:0.8;" x="291.6" xlink:href="#m35ff70d7e7" y="114.576923077"/>
      </g>
     </g>
     <g id="text_13">
      <!-- 4 -->
      <defs>
       <path d="M 32.328125 0 
L 32.328125 17.140625 
L 1.265625 17.140625 
L 1.265625 25.203125 
L 33.9375 71.578125 
L 41.109375 71.578125 
L 41.109375 25.203125 
L 50.78125 25.203125 
L 50.78125 17.140625 
L 41.109375 17.140625 
L 41.109375 0 
z
M 32.328125 25.203125 
L 32.328125 57.46875 
L 9.90625 25.203125 
z
" id="ArialMT-34"/>
      </defs>
      <g style="fill:#262626;" transform="translate(30.45125 116.645048077)scale(0.08 -0.08)">
       <use xlink:href="#ArialMT-34"/>
      </g>
     </g>
    </g>
    <g id="ytick_4">
     <g id="line2d_37">
      <path clip-path="url(#p91b48f435f)" d="M 40.5 93.115385 
L 291.6 93.115385 
" style="fill:none;stroke:#ffffff;stroke-linecap:round;stroke-width:0.8;"/>
     </g>
     <g id="line2d_38">
      <g>
       <use style="fill:#262626;stroke:#262626;stroke-width:0.8;" x="40.5" xlink:href="#m35ff70d7e7" y="93.1153846154"/>
      </g>
     </g>
     <g id="line2d_39">
      <g>
       <use style="fill:#262626;stroke:#262626;stroke-width:0.8;" x="291.6" xlink:href="#m35ff70d7e7" y="93.1153846154"/>
      </g>
     </g>
     <g id="text_14">
      <!-- 6 -->
      <defs>
       <path d="M 49.75 54.046875 
L 41.015625 53.375 
Q 39.84375 58.546875 37.703125 60.890625 
Q 34.125 64.65625 28.90625 64.65625 
Q 24.703125 64.65625 21.53125 62.3125 
Q 17.390625 59.28125 14.984375 53.46875 
Q 12.59375 47.65625 12.5 36.921875 
Q 15.671875 41.75 20.265625 44.09375 
Q 24.859375 46.4375 29.890625 46.4375 
Q 38.671875 46.4375 44.84375 39.96875 
Q 51.03125 33.5 51.03125 23.25 
Q 51.03125 16.5 48.125 10.71875 
Q 45.21875 4.9375 40.140625 1.859375 
Q 35.0625 -1.21875 28.609375 -1.21875 
Q 17.625 -1.21875 10.6875 6.859375 
Q 3.765625 14.9375 3.765625 33.5 
Q 3.765625 54.25 11.421875 63.671875 
Q 18.109375 71.875 29.4375 71.875 
Q 37.890625 71.875 43.28125 67.140625 
Q 48.6875 62.40625 49.75 54.046875 
M 13.875 23.1875 
Q 13.875 18.65625 15.796875 14.5 
Q 17.71875 10.359375 21.1875 8.171875 
Q 24.65625 6 28.46875 6 
Q 34.03125 6 38.03125 10.484375 
Q 42.046875 14.984375 42.046875 22.703125 
Q 42.046875 30.125 38.078125 34.390625 
Q 34.125 38.671875 28.125 38.671875 
Q 22.171875 38.671875 18.015625 34.390625 
Q 13.875 30.125 13.875 23.1875 
" id="ArialMT-36"/>
      </defs>
      <g style="fill:#262626;" transform="translate(30.45125 95.1835096154)scale(0.08 -0.08)">
       <use xlink:href="#ArialMT-36"/>
      </g>
     </g>
    </g>
    <g id="ytick_5">
     <g id="line2d_40">
      <path clip-path="url(#p91b48f435f)" d="M 40.5 71.653846 
L 291.6 71.653846 
" style="fill:none;stroke:#ffffff;stroke-linecap:round;stroke-width:0.8;"/>
     </g>
     <g id="line2d_41">
      <g>
       <use style="fill:#262626;stroke:#262626;stroke-width:0.8;" x="40.5" xlink:href="#m35ff70d7e7" y="71.6538461538"/>
      </g>
     </g>
     <g id="line2d_42">
      <g>
       <use style="fill:#262626;stroke:#262626;stroke-width:0.8;" x="291.6" xlink:href="#m35ff70d7e7" y="71.6538461538"/>
      </g>
     </g>
     <g id="text_15">
      <!-- 8 -->
      <defs>
       <path d="M 17.671875 38.8125 
Q 12.203125 40.828125 9.5625 44.53125 
Q 6.9375 48.25 6.9375 53.421875 
Q 6.9375 61.234375 12.546875 66.546875 
Q 18.171875 71.875 27.484375 71.875 
Q 36.859375 71.875 42.578125 66.421875 
Q 48.296875 60.984375 48.296875 53.171875 
Q 48.296875 48.1875 45.671875 44.5 
Q 43.0625 40.828125 37.75 38.8125 
Q 44.34375 36.671875 47.78125 31.875 
Q 51.21875 27.09375 51.21875 20.453125 
Q 51.21875 11.28125 44.71875 5.03125 
Q 38.234375 -1.21875 27.640625 -1.21875 
Q 17.046875 -1.21875 10.546875 5.046875 
Q 4.046875 11.328125 4.046875 20.703125 
Q 4.046875 27.6875 7.59375 32.390625 
Q 11.140625 37.109375 17.671875 38.8125 
M 15.921875 53.71875 
Q 15.921875 48.640625 19.1875 45.40625 
Q 22.46875 42.1875 27.6875 42.1875 
Q 32.765625 42.1875 36.015625 45.375 
Q 39.265625 48.578125 39.265625 53.21875 
Q 39.265625 58.0625 35.90625 61.359375 
Q 32.5625 64.65625 27.59375 64.65625 
Q 22.5625 64.65625 19.234375 61.421875 
Q 15.921875 58.203125 15.921875 53.71875 
M 13.09375 20.65625 
Q 13.09375 16.890625 14.875 13.375 
Q 16.65625 9.859375 20.171875 7.921875 
Q 23.6875 6 27.734375 6 
Q 34.03125 6 38.125 10.046875 
Q 42.234375 14.109375 42.234375 20.359375 
Q 42.234375 26.703125 38.015625 30.859375 
Q 33.796875 35.015625 27.4375 35.015625 
Q 21.234375 35.015625 17.15625 30.90625 
Q 13.09375 26.8125 13.09375 20.65625 
" id="ArialMT-38"/>
      </defs>
      <g style="fill:#262626;" transform="translate(30.45125 73.7219711538)scale(0.08 -0.08)">
       <use xlink:href="#ArialMT-38"/>
      </g>
     </g>
    </g>
    <g id="ytick_6">
     <g id="line2d_43">
      <path clip-path="url(#p91b48f435f)" d="M 40.5 50.192308 
L 291.6 50.192308 
" style="fill:none;stroke:#ffffff;stroke-linecap:round;stroke-width:0.8;"/>
     </g>
     <g id="line2d_44">
      <g>
       <use style="fill:#262626;stroke:#262626;stroke-width:0.8;" x="40.5" xlink:href="#m35ff70d7e7" y="50.1923076923"/>
      </g>
     </g>
     <g id="line2d_45">
      <g>
       <use style="fill:#262626;stroke:#262626;stroke-width:0.8;" x="291.6" xlink:href="#m35ff70d7e7" y="50.1923076923"/>
      </g>
     </g>
     <g id="text_16">
      <!-- 10 -->
      <g style="fill:#262626;" transform="translate(26.0025 52.2604326923)scale(0.08 -0.08)">
       <use xlink:href="#ArialMT-31"/>
       <use x="55.615234375" xlink:href="#ArialMT-30"/>
      </g>
     </g>
    </g>
    <g id="ytick_7">
     <g id="line2d_46">
      <path clip-path="url(#p91b48f435f)" d="M 40.5 28.730769 
L 291.6 28.730769 
" style="fill:none;stroke:#ffffff;stroke-linecap:round;stroke-width:0.8;"/>
     </g>
     <g id="line2d_47">
      <g>
       <use style="fill:#262626;stroke:#262626;stroke-width:0.8;" x="40.5" xlink:href="#m35ff70d7e7" y="28.7307692308"/>
      </g>
     </g>
     <g id="line2d_48">
      <g>
       <use style="fill:#262626;stroke:#262626;stroke-width:0.8;" x="291.6" xlink:href="#m35ff70d7e7" y="28.7307692308"/>
      </g>
     </g>
     <g id="text_17">
      <!-- 12 -->
      <g style="fill:#262626;" transform="translate(26.0025 30.7988942308)scale(0.08 -0.08)">
       <use xlink:href="#ArialMT-31"/>
       <use x="55.615234375" xlink:href="#ArialMT-32"/>
      </g>
     </g>
    </g>
   </g>
   <g id="patch_3">
    <path clip-path="url(#p91b48f435f)" d="M 51.7995 157.5 
L 71.51085 157.5 
L 71.51085 114.576923 
L 51.7995 114.576923 
z
" style="fill:url(#h8dba31a8cb);opacity:0.7;stroke:#eeeeee;stroke-linejoin:miter;stroke-width:0.24;"/>
   </g>
   <g id="patch_4">
    <path clip-path="url(#p91b48f435f)" d="M 71.51085 157.5 
L 91.2222 157.5 
L 91.2222 93.115385 
L 71.51085 93.115385 
z
" style="fill:url(#h8dba31a8cb);opacity:0.7;stroke:#eeeeee;stroke-linejoin:miter;stroke-width:0.24;"/>
   </g>
   <g id="patch_5">
    <path clip-path="url(#p91b48f435f)" d="M 91.2222 157.5 
L 110.93355 157.5 
L 110.93355 60.923077 
L 91.2222 60.923077 
z
" style="fill:url(#h8dba31a8cb);opacity:0.7;stroke:#eeeeee;stroke-linejoin:miter;stroke-width:0.24;"/>
   </g>
   <g id="patch_6">
    <path clip-path="url(#p91b48f435f)" d="M 110.93355 157.5 
L 130.6449 157.5 
L 130.6449 50.192308 
L 110.93355 50.192308 
z
" style="fill:url(#h8dba31a8cb);opacity:0.7;stroke:#eeeeee;stroke-linejoin:miter;stroke-width:0.24;"/>
   </g>
   <g id="patch_7">
    <path clip-path="url(#p91b48f435f)" d="M 130.6449 157.5 
L 150.35625 157.5 
L 150.35625 60.923077 
L 130.6449 60.923077 
z
" style="fill:url(#h8dba31a8cb);opacity:0.7;stroke:#eeeeee;stroke-linejoin:miter;stroke-width:0.24;"/>
   </g>
   <g id="patch_8">
    <path clip-path="url(#p91b48f435f)" d="M 151.61175 157.5 
L 171.385875 157.5 
L 171.385875 28.730769 
L 151.61175 28.730769 
z
" style="fill:url(#h0b49518e2e);opacity:0.7;stroke:#eeeeee;stroke-linejoin:miter;stroke-width:0.24;"/>
   </g>
   <g id="patch_9">
    <path clip-path="url(#p91b48f435f)" d="M 171.385875 157.5 
L 191.16 157.5 
L 191.16 103.846154 
L 171.385875 103.846154 
z
" style="fill:url(#h0b49518e2e);opacity:0.7;stroke:#eeeeee;stroke-linejoin:miter;stroke-width:0.24;"/>
   </g>
   <g id="patch_10">
    <path clip-path="url(#p91b48f435f)" d="M 191.16 157.5 
L 210.934125 157.5 
L 210.934125 103.846154 
L 191.16 103.846154 
z
" style="fill:url(#h0b49518e2e);opacity:0.7;stroke:#eeeeee;stroke-linejoin:miter;stroke-width:0.24;"/>
   </g>
   <g id="patch_11">
    <path clip-path="url(#p91b48f435f)" d="M 210.934125 157.5 
L 230.70825 157.5 
L 230.70825 114.576923 
L 210.934125 114.576923 
z
" style="fill:url(#h0b49518e2e);opacity:0.7;stroke:#eeeeee;stroke-linejoin:miter;stroke-width:0.24;"/>
   </g>
   <g id="patch_12">
    <path clip-path="url(#p91b48f435f)" d="M 230.70825 157.5 
L 250.482375 157.5 
L 250.482375 103.846154 
L 230.70825 103.846154 
z
" style="fill:url(#h0b49518e2e);opacity:0.7;stroke:#eeeeee;stroke-linejoin:miter;stroke-width:0.24;"/>
   </g>
   <g id="patch_13">
    <path clip-path="url(#p91b48f435f)" d="M 250.482375 157.5 
L 270.2565 157.5 
L 270.2565 103.846154 
L 250.482375 103.846154 
z
" style="fill:url(#h0b49518e2e);opacity:0.7;stroke:#eeeeee;stroke-linejoin:miter;stroke-width:0.24;"/>
   </g>
   <g id="patch_14">
    <path d="M 40.5 18 
L 291.6 18 
" style="fill:none;"/>
   </g>
   <g id="patch_15">
    <path d="M 291.6 157.5 
L 291.6 18 
" style="fill:none;"/>
   </g>
   <g id="patch_16">
    <path d="M 40.5 157.5 
L 291.6 157.5 
" style="fill:none;"/>
   </g>
   <g id="patch_17">
    <path d="M 40.5 157.5 
L 40.5 18 
" style="fill:none;"/>
   </g>
   <g id="legend_1">
    <g id="patch_18">
     <path d="M 302.54825 51.85125 
L 318.54825 51.85125 
L 318.54825 46.25125 
L 302.54825 46.25125 
z
" style="fill:url(#h8dba31a8cb);opacity:0.7;stroke:#eeeeee;stroke-linejoin:miter;stroke-width:0.24;"/>
    </g>
    <g id="text_18">
     <!-- Low-Low learners -->
     <defs>
      <path d="M 6.390625 0 
L 6.390625 71.578125 
L 15.1875 71.578125 
L 15.1875 0 
z
" id="ArialMT-6c"/>
      <path d="M 7.328125 0 
L 7.328125 71.578125 
L 16.796875 71.578125 
L 16.796875 8.453125 
L 52.046875 8.453125 
L 52.046875 0 
z
" id="ArialMT-4c"/>
      <path d="M 16.15625 0 
L 0.296875 51.859375 
L 9.375 51.859375 
L 17.625 21.921875 
L 20.703125 10.796875 
Q 20.90625 11.625 23.390625 21.484375 
L 31.640625 51.859375 
L 40.671875 51.859375 
L 48.4375 21.78125 
L 51.03125 11.859375 
L 54 21.875 
L 62.890625 51.859375 
L 71.4375 51.859375 
L 55.21875 0 
L 46.09375 0 
L 37.84375 31.0625 
L 35.84375 39.890625 
L 25.34375 0 
z
" id="ArialMT-77"/>
      <path d="M 40.4375 6.390625 
Q 35.546875 2.25 31.03125 0.53125 
Q 26.515625 -1.171875 21.34375 -1.171875 
Q 12.796875 -1.171875 8.203125 3 
Q 3.609375 7.171875 3.609375 13.671875 
Q 3.609375 17.484375 5.34375 20.625 
Q 7.078125 23.78125 9.890625 25.6875 
Q 12.703125 27.59375 16.21875 28.5625 
Q 18.796875 29.25 24.03125 29.890625 
Q 34.671875 31.15625 39.703125 32.90625 
Q 39.75 34.71875 39.75 35.203125 
Q 39.75 40.578125 37.25 42.78125 
Q 33.890625 45.75 27.25 45.75 
Q 21.046875 45.75 18.09375 43.578125 
Q 15.140625 41.40625 13.71875 35.890625 
L 5.125 37.0625 
Q 6.296875 42.578125 8.984375 45.96875 
Q 11.671875 49.359375 16.75 51.1875 
Q 21.828125 53.03125 28.515625 53.03125 
Q 35.15625 53.03125 39.296875 51.46875 
Q 43.453125 49.90625 45.40625 47.53125 
Q 47.359375 45.171875 48.140625 41.546875 
Q 48.578125 39.3125 48.578125 33.453125 
L 48.578125 21.734375 
Q 48.578125 9.46875 49.140625 6.21875 
Q 49.703125 2.984375 51.375 0 
L 42.1875 0 
Q 40.828125 2.734375 40.4375 6.390625 
M 39.703125 26.03125 
Q 34.90625 24.078125 25.34375 22.703125 
Q 19.921875 21.921875 17.671875 20.9375 
Q 15.4375 19.96875 14.203125 18.09375 
Q 12.984375 16.21875 12.984375 13.921875 
Q 12.984375 10.40625 15.640625 8.0625 
Q 18.3125 5.71875 23.4375 5.71875 
Q 28.515625 5.71875 32.46875 7.9375 
Q 36.421875 10.15625 38.28125 14.015625 
Q 39.703125 17 39.703125 22.796875 
z
" id="ArialMT-61"/>
      <path d="M 6.59375 0 
L 6.59375 51.859375 
L 14.5 51.859375 
L 14.5 44.484375 
Q 20.21875 53.03125 31 53.03125 
Q 35.6875 53.03125 39.625 51.34375 
Q 43.5625 49.65625 45.515625 46.921875 
Q 47.46875 44.1875 48.25 40.4375 
Q 48.734375 37.984375 48.734375 31.890625 
L 48.734375 0 
L 39.9375 0 
L 39.9375 31.546875 
Q 39.9375 36.921875 38.90625 39.578125 
Q 37.890625 42.234375 35.28125 43.8125 
Q 32.671875 45.40625 29.15625 45.40625 
Q 23.53125 45.40625 19.453125 41.84375 
Q 15.375 38.28125 15.375 28.328125 
L 15.375 0 
z
" id="ArialMT-6e"/>
     </defs>
     <g style="fill:#262626;" transform="translate(324.94825 51.85125)scale(0.08 -0.08)">
      <use xlink:href="#ArialMT-4c"/>
      <use x="55.615234375" xlink:href="#ArialMT-6f"/>
      <use x="111.23046875" xlink:href="#ArialMT-77"/>
      <use x="183.447265625" xlink:href="#ArialMT-2d"/>
      <use x="216.748046875" xlink:href="#ArialMT-4c"/>
      <use x="272.36328125" xlink:href="#ArialMT-6f"/>
      <use x="327.978515625" xlink:href="#ArialMT-77"/>
      <use x="400.1953125" xlink:href="#ArialMT-20"/>
      <use x="427.978515625" xlink:href="#ArialMT-6c"/>
      <use x="450.1953125" xlink:href="#ArialMT-65"/>
      <use x="505.810546875" xlink:href="#ArialMT-61"/>
      <use x="561.42578125" xlink:href="#ArialMT-72"/>
      <use x="594.7265625" xlink:href="#ArialMT-6e"/>
      <use x="650.341796875" xlink:href="#ArialMT-65"/>
      <use x="705.95703125" xlink:href="#ArialMT-72"/>
      <use x="739.2578125" xlink:href="#ArialMT-73"/>
     </g>
    </g>
    <g id="patch_19">
     <path d="M 302.54825 63.1675 
L 318.54825 63.1675 
L 318.54825 57.5675 
L 302.54825 57.5675 
z
" style="fill:url(#h0b49518e2e);opacity:0.7;stroke:#eeeeee;stroke-linejoin:miter;stroke-width:0.24;"/>
    </g>
    <g id="text_19">
     <!-- Low-High learners -->
     <defs>
      <path d="M 8.015625 0 
L 8.015625 71.578125 
L 17.484375 71.578125 
L 17.484375 42.1875 
L 54.6875 42.1875 
L 54.6875 71.578125 
L 64.15625 71.578125 
L 64.15625 0 
L 54.6875 0 
L 54.6875 33.734375 
L 17.484375 33.734375 
L 17.484375 0 
z
" id="ArialMT-48"/>
      <path d="M 6.640625 61.46875 
L 6.640625 71.578125 
L 15.4375 71.578125 
L 15.4375 61.46875 
z
M 6.640625 0 
L 6.640625 51.859375 
L 15.4375 51.859375 
L 15.4375 0 
z
" id="ArialMT-69"/>
      <path d="M 6.59375 0 
L 6.59375 71.578125 
L 15.375 71.578125 
L 15.375 45.90625 
Q 21.53125 53.03125 30.90625 53.03125 
Q 36.671875 53.03125 40.921875 50.75 
Q 45.171875 48.484375 47 44.484375 
Q 48.828125 40.484375 48.828125 32.859375 
L 48.828125 0 
L 40.046875 0 
L 40.046875 32.859375 
Q 40.046875 39.453125 37.1875 42.453125 
Q 34.328125 45.453125 29.109375 45.453125 
Q 25.203125 45.453125 21.75 43.421875 
Q 18.3125 41.40625 16.84375 37.9375 
Q 15.375 34.46875 15.375 28.375 
L 15.375 0 
z
" id="ArialMT-68"/>
      <path d="M 4.984375 -4.296875 
L 13.53125 -5.5625 
Q 14.0625 -9.515625 16.5 -11.328125 
Q 19.78125 -13.765625 25.4375 -13.765625 
Q 31.546875 -13.765625 34.859375 -11.328125 
Q 38.1875 -8.890625 39.359375 -4.5 
Q 40.046875 -1.8125 39.984375 6.78125 
Q 34.234375 0 25.640625 0 
Q 14.9375 0 9.078125 7.71875 
Q 3.21875 15.4375 3.21875 26.21875 
Q 3.21875 33.640625 5.90625 39.90625 
Q 8.59375 46.1875 13.6875 49.609375 
Q 18.796875 53.03125 25.6875 53.03125 
Q 34.859375 53.03125 40.828125 45.609375 
L 40.828125 51.859375 
L 48.921875 51.859375 
L 48.921875 7.03125 
Q 48.921875 -5.078125 46.453125 -10.125 
Q 44 -15.1875 38.640625 -18.109375 
Q 33.296875 -21.046875 25.484375 -21.046875 
Q 16.21875 -21.046875 10.5 -16.875 
Q 4.78125 -12.703125 4.984375 -4.296875 
M 12.25 26.859375 
Q 12.25 16.65625 16.296875 11.96875 
Q 20.359375 7.28125 26.46875 7.28125 
Q 32.515625 7.28125 36.609375 11.9375 
Q 40.71875 16.609375 40.71875 26.5625 
Q 40.71875 36.078125 36.5 40.90625 
Q 32.28125 45.75 26.3125 45.75 
Q 20.453125 45.75 16.34375 40.984375 
Q 12.25 36.234375 12.25 26.859375 
" id="ArialMT-67"/>
     </defs>
     <g style="fill:#262626;" transform="translate(324.94825 63.1675)scale(0.08 -0.08)">
      <use xlink:href="#ArialMT-4c"/>
      <use x="55.615234375" xlink:href="#ArialMT-6f"/>
      <use x="111.23046875" xlink:href="#ArialMT-77"/>
      <use x="183.447265625" xlink:href="#ArialMT-2d"/>
      <use x="216.748046875" xlink:href="#ArialMT-48"/>
      <use x="288.96484375" xlink:href="#ArialMT-69"/>
      <use x="311.181640625" xlink:href="#ArialMT-67"/>
      <use x="366.796875" xlink:href="#ArialMT-68"/>
      <use x="422.412109375" xlink:href="#ArialMT-20"/>
      <use x="450.1953125" xlink:href="#ArialMT-6c"/>
      <use x="472.412109375" xlink:href="#ArialMT-65"/>
      <use x="528.02734375" xlink:href="#ArialMT-61"/>
      <use x="583.642578125" xlink:href="#ArialMT-72"/>
      <use x="616.943359375" xlink:href="#ArialMT-6e"/>
      <use x="672.55859375" xlink:href="#ArialMT-65"/>
      <use x="728.173828125" xlink:href="#ArialMT-72"/>
      <use x="761.474609375" xlink:href="#ArialMT-73"/>
     </g>
    </g>
   </g>
  </g>
 </g>
 <defs>
  <clipPath id="p91b48f435f">
   <rect height="139.5" width="251.1" x="40.5" y="18.0"/>
  </clipPath>
 </defs>
 <defs>
  <pattern height="72" id="h0b49518e2e" patternUnits="userSpaceOnUse" width="72" x="0" y="0">
   <rect fill="#3f007d" height="73" width="73" x="0" y="0"/>
   <path d="M -36 36 
L 36 -36 
M -24 48 
L 48 -24 
M -12 60 
L 60 -12 
M 0 72 
L 72 0 
M 12 84 
L 84 12 
M 24 96 
L 96 24 
M 36 108 
L 108 36 
M -36 36 
L 36 108 
M -24 24 
L 48 96 
M -12 12 
L 60 84 
M 0 0 
L 72 72 
M 12 -12 
L 84 60 
M 24 -24 
L 96 48 
M 36 -36 
L 108 36 
" style="fill:#eeeeee;stroke:#eeeeee;stroke-linecap:butt;stroke-linejoin:miter;stroke-width:1.0;"/>
  </pattern>
  <pattern height="72" id="h8dba31a8cb" patternUnits="userSpaceOnUse" width="72" x="0" y="0">
   <rect fill="#3f007d" height="73" width="73" x="0" y="0"/>
   <path d="M 0 74.4 
C 0.636487 74.4 1.246992 74.147121 1.697056 73.697056 
C 2.147121 73.246992 2.4 72.636487 2.4 72 
C 2.4 71.363513 2.147121 70.753008 1.697056 70.302944 
C 1.246992 69.852879 0.636487 69.6 0 69.6 
C -0.636487 69.6 -1.246992 69.852879 -1.697056 70.302944 
C -2.147121 70.753008 -2.4 71.363513 -2.4 72 
C -2.4 72.636487 -2.147121 73.246992 -1.697056 73.697056 
C -1.246992 74.147121 -0.636487 74.4 0 74.4 
z
M 0 74.16 
C 0 74.16 -0.572839 74.16 -1.122293 73.932409 
C -1.527351 73.527351 -1.932409 73.122293 -2.16 72.572839 
C -2.16 72 -2.16 71.427161 -1.932409 70.877707 
C -1.527351 70.472649 -1.122293 70.067591 -0.572839 69.84 
C 0 69.84 0.572839 69.84 1.122293 70.067591 
C 1.527351 70.472649 1.932409 70.877707 2.16 71.427161 
C 2.16 72 2.16 72.572839 1.932409 73.122293 
C 1.527351 73.527351 1.122293 73.932409 0.572839 74.16 
z
M 12 74.4 
C 12.636487 74.4 13.246992 74.147121 13.697056 73.697056 
C 14.147121 73.246992 14.4 72.636487 14.4 72 
C 14.4 71.363513 14.147121 70.753008 13.697056 70.302944 
C 13.246992 69.852879 12.636487 69.6 12 69.6 
C 11.363513 69.6 10.753008 69.852879 10.302944 70.302944 
C 9.852879 70.753008 9.6 71.363513 9.6 72 
C 9.6 72.636487 9.852879 73.246992 10.302944 73.697056 
C 10.753008 74.147121 11.363513 74.4 12 74.4 
z
M 12 74.16 
C 12 74.16 11.427161 74.16 10.877707 73.932409 
C 10.472649 73.527351 10.067591 73.122293 9.84 72.572839 
C 9.84 72 9.84 71.427161 10.067591 70.877707 
C 10.472649 70.472649 10.877707 70.067591 11.427161 69.84 
C 12 69.84 12.572839 69.84 13.122293 70.067591 
C 13.527351 70.472649 13.932409 70.877707 14.16 71.427161 
C 14.16 72 14.16 72.572839 13.932409 73.122293 
C 13.527351 73.527351 13.122293 73.932409 12.572839 74.16 
z
M 24 74.4 
C 24.636487 74.4 25.246992 74.147121 25.697056 73.697056 
C 26.147121 73.246992 26.4 72.636487 26.4 72 
C 26.4 71.363513 26.147121 70.753008 25.697056 70.302944 
C 25.246992 69.852879 24.636487 69.6 24 69.6 
C 23.363513 69.6 22.753008 69.852879 22.302944 70.302944 
C 21.852879 70.753008 21.6 71.363513 21.6 72 
C 21.6 72.636487 21.852879 73.246992 22.302944 73.697056 
C 22.753008 74.147121 23.363513 74.4 24 74.4 
z
M 24 74.16 
C 24 74.16 23.427161 74.16 22.877707 73.932409 
C 22.472649 73.527351 22.067591 73.122293 21.84 72.572839 
C 21.84 72 21.84 71.427161 22.067591 70.877707 
C 22.472649 70.472649 22.877707 70.067591 23.427161 69.84 
C 24 69.84 24.572839 69.84 25.122293 70.067591 
C 25.527351 70.472649 25.932409 70.877707 26.16 71.427161 
C 26.16 72 26.16 72.572839 25.932409 73.122293 
C 25.527351 73.527351 25.122293 73.932409 24.572839 74.16 
z
M 36 74.4 
C 36.636487 74.4 37.246992 74.147121 37.697056 73.697056 
C 38.147121 73.246992 38.4 72.636487 38.4 72 
C 38.4 71.363513 38.147121 70.753008 37.697056 70.302944 
C 37.246992 69.852879 36.636487 69.6 36 69.6 
C 35.363513 69.6 34.753008 69.852879 34.302944 70.302944 
C 33.852879 70.753008 33.6 71.363513 33.6 72 
C 33.6 72.636487 33.852879 73.246992 34.302944 73.697056 
C 34.753008 74.147121 35.363513 74.4 36 74.4 
z
M 36 74.16 
C 36 74.16 35.427161 74.16 34.877707 73.932409 
C 34.472649 73.527351 34.067591 73.122293 33.84 72.572839 
C 33.84 72 33.84 71.427161 34.067591 70.877707 
C 34.472649 70.472649 34.877707 70.067591 35.427161 69.84 
C 36 69.84 36.572839 69.84 37.122293 70.067591 
C 37.527351 70.472649 37.932409 70.877707 38.16 71.427161 
C 38.16 72 38.16 72.572839 37.932409 73.122293 
C 37.527351 73.527351 37.122293 73.932409 36.572839 74.16 
z
M 48 74.4 
C 48.636487 74.4 49.246992 74.147121 49.697056 73.697056 
C 50.147121 73.246992 50.4 72.636487 50.4 72 
C 50.4 71.363513 50.147121 70.753008 49.697056 70.302944 
C 49.246992 69.852879 48.636487 69.6 48 69.6 
C 47.363513 69.6 46.753008 69.852879 46.302944 70.302944 
C 45.852879 70.753008 45.6 71.363513 45.6 72 
C 45.6 72.636487 45.852879 73.246992 46.302944 73.697056 
C 46.753008 74.147121 47.363513 74.4 48 74.4 
z
M 48 74.16 
C 48 74.16 47.427161 74.16 46.877707 73.932409 
C 46.472649 73.527351 46.067591 73.122293 45.84 72.572839 
C 45.84 72 45.84 71.427161 46.067591 70.877707 
C 46.472649 70.472649 46.877707 70.067591 47.427161 69.84 
C 48 69.84 48.572839 69.84 49.122293 70.067591 
C 49.527351 70.472649 49.932409 70.877707 50.16 71.427161 
C 50.16 72 50.16 72.572839 49.932409 73.122293 
C 49.527351 73.527351 49.122293 73.932409 48.572839 74.16 
z
M 60 74.4 
C 60.636487 74.4 61.246992 74.147121 61.697056 73.697056 
C 62.147121 73.246992 62.4 72.636487 62.4 72 
C 62.4 71.363513 62.147121 70.753008 61.697056 70.302944 
C 61.246992 69.852879 60.636487 69.6 60 69.6 
C 59.363513 69.6 58.753008 69.852879 58.302944 70.302944 
C 57.852879 70.753008 57.6 71.363513 57.6 72 
C 57.6 72.636487 57.852879 73.246992 58.302944 73.697056 
C 58.753008 74.147121 59.363513 74.4 60 74.4 
z
M 60 74.16 
C 60 74.16 59.427161 74.16 58.877707 73.932409 
C 58.472649 73.527351 58.067591 73.122293 57.84 72.572839 
C 57.84 72 57.84 71.427161 58.067591 70.877707 
C 58.472649 70.472649 58.877707 70.067591 59.427161 69.84 
C 60 69.84 60.572839 69.84 61.122293 70.067591 
C 61.527351 70.472649 61.932409 70.877707 62.16 71.427161 
C 62.16 72 62.16 72.572839 61.932409 73.122293 
C 61.527351 73.527351 61.122293 73.932409 60.572839 74.16 
z
M 72 74.4 
C 72.636487 74.4 73.246992 74.147121 73.697056 73.697056 
C 74.147121 73.246992 74.4 72.636487 74.4 72 
C 74.4 71.363513 74.147121 70.753008 73.697056 70.302944 
C 73.246992 69.852879 72.636487 69.6 72 69.6 
C 71.363513 69.6 70.753008 69.852879 70.302944 70.302944 
C 69.852879 70.753008 69.6 71.363513 69.6 72 
C 69.6 72.636487 69.852879 73.246992 70.302944 73.697056 
C 70.753008 74.147121 71.363513 74.4 72 74.4 
z
M 72 74.16 
C 72 74.16 71.427161 74.16 70.877707 73.932409 
C 70.472649 73.527351 70.067591 73.122293 69.84 72.572839 
C 69.84 72 69.84 71.427161 70.067591 70.877707 
C 70.472649 70.472649 70.877707 70.067591 71.427161 69.84 
C 72 69.84 72.572839 69.84 73.122293 70.067591 
C 73.527351 70.472649 73.932409 70.877707 74.16 71.427161 
C 74.16 72 74.16 72.572839 73.932409 73.122293 
C 73.527351 73.527351 73.122293 73.932409 72.572839 74.16 
z
M 6 62.4 
C 6.636487 62.4 7.246992 62.147121 7.697056 61.697056 
C 8.147121 61.246992 8.4 60.636487 8.4 60 
C 8.4 59.363513 8.147121 58.753008 7.697056 58.302944 
C 7.246992 57.852879 6.636487 57.6 6 57.6 
C 5.363513 57.6 4.753008 57.852879 4.302944 58.302944 
C 3.852879 58.753008 3.6 59.363513 3.6 60 
C 3.6 60.636487 3.852879 61.246992 4.302944 61.697056 
C 4.753008 62.147121 5.363513 62.4 6 62.4 
z
M 6 62.16 
C 6 62.16 5.427161 62.16 4.877707 61.932409 
C 4.472649 61.527351 4.067591 61.122293 3.84 60.572839 
C 3.84 60 3.84 59.427161 4.067591 58.877707 
C 4.472649 58.472649 4.877707 58.067591 5.427161 57.84 
C 6 57.84 6.572839 57.84 7.122293 58.067591 
C 7.527351 58.472649 7.932409 58.877707 8.16 59.427161 
C 8.16 60 8.16 60.572839 7.932409 61.122293 
C 7.527351 61.527351 7.122293 61.932409 6.572839 62.16 
z
M 18 62.4 
C 18.636487 62.4 19.246992 62.147121 19.697056 61.697056 
C 20.147121 61.246992 20.4 60.636487 20.4 60 
C 20.4 59.363513 20.147121 58.753008 19.697056 58.302944 
C 19.246992 57.852879 18.636487 57.6 18 57.6 
C 17.363513 57.6 16.753008 57.852879 16.302944 58.302944 
C 15.852879 58.753008 15.6 59.363513 15.6 60 
C 15.6 60.636487 15.852879 61.246992 16.302944 61.697056 
C 16.753008 62.147121 17.363513 62.4 18 62.4 
z
M 18 62.16 
C 18 62.16 17.427161 62.16 16.877707 61.932409 
C 16.472649 61.527351 16.067591 61.122293 15.84 60.572839 
C 15.84 60 15.84 59.427161 16.067591 58.877707 
C 16.472649 58.472649 16.877707 58.067591 17.427161 57.84 
C 18 57.84 18.572839 57.84 19.122293 58.067591 
C 19.527351 58.472649 19.932409 58.877707 20.16 59.427161 
C 20.16 60 20.16 60.572839 19.932409 61.122293 
C 19.527351 61.527351 19.122293 61.932409 18.572839 62.16 
z
M 30 62.4 
C 30.636487 62.4 31.246992 62.147121 31.697056 61.697056 
C 32.147121 61.246992 32.4 60.636487 32.4 60 
C 32.4 59.363513 32.147121 58.753008 31.697056 58.302944 
C 31.246992 57.852879 30.636487 57.6 30 57.6 
C 29.363513 57.6 28.753008 57.852879 28.302944 58.302944 
C 27.852879 58.753008 27.6 59.363513 27.6 60 
C 27.6 60.636487 27.852879 61.246992 28.302944 61.697056 
C 28.753008 62.147121 29.363513 62.4 30 62.4 
z
M 30 62.16 
C 30 62.16 29.427161 62.16 28.877707 61.932409 
C 28.472649 61.527351 28.067591 61.122293 27.84 60.572839 
C 27.84 60 27.84 59.427161 28.067591 58.877707 
C 28.472649 58.472649 28.877707 58.067591 29.427161 57.84 
C 30 57.84 30.572839 57.84 31.122293 58.067591 
C 31.527351 58.472649 31.932409 58.877707 32.16 59.427161 
C 32.16 60 32.16 60.572839 31.932409 61.122293 
C 31.527351 61.527351 31.122293 61.932409 30.572839 62.16 
z
M 42 62.4 
C 42.636487 62.4 43.246992 62.147121 43.697056 61.697056 
C 44.147121 61.246992 44.4 60.636487 44.4 60 
C 44.4 59.363513 44.147121 58.753008 43.697056 58.302944 
C 43.246992 57.852879 42.636487 57.6 42 57.6 
C 41.363513 57.6 40.753008 57.852879 40.302944 58.302944 
C 39.852879 58.753008 39.6 59.363513 39.6 60 
C 39.6 60.636487 39.852879 61.246992 40.302944 61.697056 
C 40.753008 62.147121 41.363513 62.4 42 62.4 
z
M 42 62.16 
C 42 62.16 41.427161 62.16 40.877707 61.932409 
C 40.472649 61.527351 40.067591 61.122293 39.84 60.572839 
C 39.84 60 39.84 59.427161 40.067591 58.877707 
C 40.472649 58.472649 40.877707 58.067591 41.427161 57.84 
C 42 57.84 42.572839 57.84 43.122293 58.067591 
C 43.527351 58.472649 43.932409 58.877707 44.16 59.427161 
C 44.16 60 44.16 60.572839 43.932409 61.122293 
C 43.527351 61.527351 43.122293 61.932409 42.572839 62.16 
z
M 54 62.4 
C 54.636487 62.4 55.246992 62.147121 55.697056 61.697056 
C 56.147121 61.246992 56.4 60.636487 56.4 60 
C 56.4 59.363513 56.147121 58.753008 55.697056 58.302944 
C 55.246992 57.852879 54.636487 57.6 54 57.6 
C 53.363513 57.6 52.753008 57.852879 52.302944 58.302944 
C 51.852879 58.753008 51.6 59.363513 51.6 60 
C 51.6 60.636487 51.852879 61.246992 52.302944 61.697056 
C 52.753008 62.147121 53.363513 62.4 54 62.4 
z
M 54 62.16 
C 54 62.16 53.427161 62.16 52.877707 61.932409 
C 52.472649 61.527351 52.067591 61.122293 51.84 60.572839 
C 51.84 60 51.84 59.427161 52.067591 58.877707 
C 52.472649 58.472649 52.877707 58.067591 53.427161 57.84 
C 54 57.84 54.572839 57.84 55.122293 58.067591 
C 55.527351 58.472649 55.932409 58.877707 56.16 59.427161 
C 56.16 60 56.16 60.572839 55.932409 61.122293 
C 55.527351 61.527351 55.122293 61.932409 54.572839 62.16 
z
M 66 62.4 
C 66.636487 62.4 67.246992 62.147121 67.697056 61.697056 
C 68.147121 61.246992 68.4 60.636487 68.4 60 
C 68.4 59.363513 68.147121 58.753008 67.697056 58.302944 
C 67.246992 57.852879 66.636487 57.6 66 57.6 
C 65.363513 57.6 64.753008 57.852879 64.302944 58.302944 
C 63.852879 58.753008 63.6 59.363513 63.6 60 
C 63.6 60.636487 63.852879 61.246992 64.302944 61.697056 
C 64.753008 62.147121 65.363513 62.4 66 62.4 
z
M 66 62.16 
C 66 62.16 65.427161 62.16 64.877707 61.932409 
C 64.472649 61.527351 64.067591 61.122293 63.84 60.572839 
C 63.84 60 63.84 59.427161 64.067591 58.877707 
C 64.472649 58.472649 64.877707 58.067591 65.427161 57.84 
C 66 57.84 66.572839 57.84 67.122293 58.067591 
C 67.527351 58.472649 67.932409 58.877707 68.16 59.427161 
C 68.16 60 68.16 60.572839 67.932409 61.122293 
C 67.527351 61.527351 67.122293 61.932409 66.572839 62.16 
z
M 0 50.4 
C 0.636487 50.4 1.246992 50.147121 1.697056 49.697056 
C 2.147121 49.246992 2.4 48.636487 2.4 48 
C 2.4 47.363513 2.147121 46.753008 1.697056 46.302944 
C 1.246992 45.852879 0.636487 45.6 0 45.6 
C -0.636487 45.6 -1.246992 45.852879 -1.697056 46.302944 
C -2.147121 46.753008 -2.4 47.363513 -2.4 48 
C -2.4 48.636487 -2.147121 49.246992 -1.697056 49.697056 
C -1.246992 50.147121 -0.636487 50.4 0 50.4 
z
M 0 50.16 
C 0 50.16 -0.572839 50.16 -1.122293 49.932409 
C -1.527351 49.527351 -1.932409 49.122293 -2.16 48.572839 
C -2.16 48 -2.16 47.427161 -1.932409 46.877707 
C -1.527351 46.472649 -1.122293 46.067591 -0.572839 45.84 
C 0 45.84 0.572839 45.84 1.122293 46.067591 
C 1.527351 46.472649 1.932409 46.877707 2.16 47.427161 
C 2.16 48 2.16 48.572839 1.932409 49.122293 
C 1.527351 49.527351 1.122293 49.932409 0.572839 50.16 
z
M 12 50.4 
C 12.636487 50.4 13.246992 50.147121 13.697056 49.697056 
C 14.147121 49.246992 14.4 48.636487 14.4 48 
C 14.4 47.363513 14.147121 46.753008 13.697056 46.302944 
C 13.246992 45.852879 12.636487 45.6 12 45.6 
C 11.363513 45.6 10.753008 45.852879 10.302944 46.302944 
C 9.852879 46.753008 9.6 47.363513 9.6 48 
C 9.6 48.636487 9.852879 49.246992 10.302944 49.697056 
C 10.753008 50.147121 11.363513 50.4 12 50.4 
z
M 12 50.16 
C 12 50.16 11.427161 50.16 10.877707 49.932409 
C 10.472649 49.527351 10.067591 49.122293 9.84 48.572839 
C 9.84 48 9.84 47.427161 10.067591 46.877707 
C 10.472649 46.472649 10.877707 46.067591 11.427161 45.84 
C 12 45.84 12.572839 45.84 13.122293 46.067591 
C 13.527351 46.472649 13.932409 46.877707 14.16 47.427161 
C 14.16 48 14.16 48.572839 13.932409 49.122293 
C 13.527351 49.527351 13.122293 49.932409 12.572839 50.16 
z
M 24 50.4 
C 24.636487 50.4 25.246992 50.147121 25.697056 49.697056 
C 26.147121 49.246992 26.4 48.636487 26.4 48 
C 26.4 47.363513 26.147121 46.753008 25.697056 46.302944 
C 25.246992 45.852879 24.636487 45.6 24 45.6 
C 23.363513 45.6 22.753008 45.852879 22.302944 46.302944 
C 21.852879 46.753008 21.6 47.363513 21.6 48 
C 21.6 48.636487 21.852879 49.246992 22.302944 49.697056 
C 22.753008 50.147121 23.363513 50.4 24 50.4 
z
M 24 50.16 
C 24 50.16 23.427161 50.16 22.877707 49.932409 
C 22.472649 49.527351 22.067591 49.122293 21.84 48.572839 
C 21.84 48 21.84 47.427161 22.067591 46.877707 
C 22.472649 46.472649 22.877707 46.067591 23.427161 45.84 
C 24 45.84 24.572839 45.84 25.122293 46.067591 
C 25.527351 46.472649 25.932409 46.877707 26.16 47.427161 
C 26.16 48 26.16 48.572839 25.932409 49.122293 
C 25.527351 49.527351 25.122293 49.932409 24.572839 50.16 
z
M 36 50.4 
C 36.636487 50.4 37.246992 50.147121 37.697056 49.697056 
C 38.147121 49.246992 38.4 48.636487 38.4 48 
C 38.4 47.363513 38.147121 46.753008 37.697056 46.302944 
C 37.246992 45.852879 36.636487 45.6 36 45.6 
C 35.363513 45.6 34.753008 45.852879 34.302944 46.302944 
C 33.852879 46.753008 33.6 47.363513 33.6 48 
C 33.6 48.636487 33.852879 49.246992 34.302944 49.697056 
C 34.753008 50.147121 35.363513 50.4 36 50.4 
z
M 36 50.16 
C 36 50.16 35.427161 50.16 34.877707 49.932409 
C 34.472649 49.527351 34.067591 49.122293 33.84 48.572839 
C 33.84 48 33.84 47.427161 34.067591 46.877707 
C 34.472649 46.472649 34.877707 46.067591 35.427161 45.84 
C 36 45.84 36.572839 45.84 37.122293 46.067591 
C 37.527351 46.472649 37.932409 46.877707 38.16 47.427161 
C 38.16 48 38.16 48.572839 37.932409 49.122293 
C 37.527351 49.527351 37.122293 49.932409 36.572839 50.16 
z
M 48 50.4 
C 48.636487 50.4 49.246992 50.147121 49.697056 49.697056 
C 50.147121 49.246992 50.4 48.636487 50.4 48 
C 50.4 47.363513 50.147121 46.753008 49.697056 46.302944 
C 49.246992 45.852879 48.636487 45.6 48 45.6 
C 47.363513 45.6 46.753008 45.852879 46.302944 46.302944 
C 45.852879 46.753008 45.6 47.363513 45.6 48 
C 45.6 48.636487 45.852879 49.246992 46.302944 49.697056 
C 46.753008 50.147121 47.363513 50.4 48 50.4 
z
M 48 50.16 
C 48 50.16 47.427161 50.16 46.877707 49.932409 
C 46.472649 49.527351 46.067591 49.122293 45.84 48.572839 
C 45.84 48 45.84 47.427161 46.067591 46.877707 
C 46.472649 46.472649 46.877707 46.067591 47.427161 45.84 
C 48 45.84 48.572839 45.84 49.122293 46.067591 
C 49.527351 46.472649 49.932409 46.877707 50.16 47.427161 
C 50.16 48 50.16 48.572839 49.932409 49.122293 
C 49.527351 49.527351 49.122293 49.932409 48.572839 50.16 
z
M 60 50.4 
C 60.636487 50.4 61.246992 50.147121 61.697056 49.697056 
C 62.147121 49.246992 62.4 48.636487 62.4 48 
C 62.4 47.363513 62.147121 46.753008 61.697056 46.302944 
C 61.246992 45.852879 60.636487 45.6 60 45.6 
C 59.363513 45.6 58.753008 45.852879 58.302944 46.302944 
C 57.852879 46.753008 57.6 47.363513 57.6 48 
C 57.6 48.636487 57.852879 49.246992 58.302944 49.697056 
C 58.753008 50.147121 59.363513 50.4 60 50.4 
z
M 60 50.16 
C 60 50.16 59.427161 50.16 58.877707 49.932409 
C 58.472649 49.527351 58.067591 49.122293 57.84 48.572839 
C 57.84 48 57.84 47.427161 58.067591 46.877707 
C 58.472649 46.472649 58.877707 46.067591 59.427161 45.84 
C 60 45.84 60.572839 45.84 61.122293 46.067591 
C 61.527351 46.472649 61.932409 46.877707 62.16 47.427161 
C 62.16 48 62.16 48.572839 61.932409 49.122293 
C 61.527351 49.527351 61.122293 49.932409 60.572839 50.16 
z
M 72 50.4 
C 72.636487 50.4 73.246992 50.147121 73.697056 49.697056 
C 74.147121 49.246992 74.4 48.636487 74.4 48 
C 74.4 47.363513 74.147121 46.753008 73.697056 46.302944 
C 73.246992 45.852879 72.636487 45.6 72 45.6 
C 71.363513 45.6 70.753008 45.852879 70.302944 46.302944 
C 69.852879 46.753008 69.6 47.363513 69.6 48 
C 69.6 48.636487 69.852879 49.246992 70.302944 49.697056 
C 70.753008 50.147121 71.363513 50.4 72 50.4 
z
M 72 50.16 
C 72 50.16 71.427161 50.16 70.877707 49.932409 
C 70.472649 49.527351 70.067591 49.122293 69.84 48.572839 
C 69.84 48 69.84 47.427161 70.067591 46.877707 
C 70.472649 46.472649 70.877707 46.067591 71.427161 45.84 
C 72 45.84 72.572839 45.84 73.122293 46.067591 
C 73.527351 46.472649 73.932409 46.877707 74.16 47.427161 
C 74.16 48 74.16 48.572839 73.932409 49.122293 
C 73.527351 49.527351 73.122293 49.932409 72.572839 50.16 
z
M 6 38.4 
C 6.636487 38.4 7.246992 38.147121 7.697056 37.697056 
C 8.147121 37.246992 8.4 36.636487 8.4 36 
C 8.4 35.363513 8.147121 34.753008 7.697056 34.302944 
C 7.246992 33.852879 6.636487 33.6 6 33.6 
C 5.363513 33.6 4.753008 33.852879 4.302944 34.302944 
C 3.852879 34.753008 3.6 35.363513 3.6 36 
C 3.6 36.636487 3.852879 37.246992 4.302944 37.697056 
C 4.753008 38.147121 5.363513 38.4 6 38.4 
z
M 6 38.16 
C 6 38.16 5.427161 38.16 4.877707 37.932409 
C 4.472649 37.527351 4.067591 37.122293 3.84 36.572839 
C 3.84 36 3.84 35.427161 4.067591 34.877707 
C 4.472649 34.472649 4.877707 34.067591 5.427161 33.84 
C 6 33.84 6.572839 33.84 7.122293 34.067591 
C 7.527351 34.472649 7.932409 34.877707 8.16 35.427161 
C 8.16 36 8.16 36.572839 7.932409 37.122293 
C 7.527351 37.527351 7.122293 37.932409 6.572839 38.16 
z
M 18 38.4 
C 18.636487 38.4 19.246992 38.147121 19.697056 37.697056 
C 20.147121 37.246992 20.4 36.636487 20.4 36 
C 20.4 35.363513 20.147121 34.753008 19.697056 34.302944 
C 19.246992 33.852879 18.636487 33.6 18 33.6 
C 17.363513 33.6 16.753008 33.852879 16.302944 34.302944 
C 15.852879 34.753008 15.6 35.363513 15.6 36 
C 15.6 36.636487 15.852879 37.246992 16.302944 37.697056 
C 16.753008 38.147121 17.363513 38.4 18 38.4 
z
M 18 38.16 
C 18 38.16 17.427161 38.16 16.877707 37.932409 
C 16.472649 37.527351 16.067591 37.122293 15.84 36.572839 
C 15.84 36 15.84 35.427161 16.067591 34.877707 
C 16.472649 34.472649 16.877707 34.067591 17.427161 33.84 
C 18 33.84 18.572839 33.84 19.122293 34.067591 
C 19.527351 34.472649 19.932409 34.877707 20.16 35.427161 
C 20.16 36 20.16 36.572839 19.932409 37.122293 
C 19.527351 37.527351 19.122293 37.932409 18.572839 38.16 
z
M 30 38.4 
C 30.636487 38.4 31.246992 38.147121 31.697056 37.697056 
C 32.147121 37.246992 32.4 36.636487 32.4 36 
C 32.4 35.363513 32.147121 34.753008 31.697056 34.302944 
C 31.246992 33.852879 30.636487 33.6 30 33.6 
C 29.363513 33.6 28.753008 33.852879 28.302944 34.302944 
C 27.852879 34.753008 27.6 35.363513 27.6 36 
C 27.6 36.636487 27.852879 37.246992 28.302944 37.697056 
C 28.753008 38.147121 29.363513 38.4 30 38.4 
z
M 30 38.16 
C 30 38.16 29.427161 38.16 28.877707 37.932409 
C 28.472649 37.527351 28.067591 37.122293 27.84 36.572839 
C 27.84 36 27.84 35.427161 28.067591 34.877707 
C 28.472649 34.472649 28.877707 34.067591 29.427161 33.84 
C 30 33.84 30.572839 33.84 31.122293 34.067591 
C 31.527351 34.472649 31.932409 34.877707 32.16 35.427161 
C 32.16 36 32.16 36.572839 31.932409 37.122293 
C 31.527351 37.527351 31.122293 37.932409 30.572839 38.16 
z
M 42 38.4 
C 42.636487 38.4 43.246992 38.147121 43.697056 37.697056 
C 44.147121 37.246992 44.4 36.636487 44.4 36 
C 44.4 35.363513 44.147121 34.753008 43.697056 34.302944 
C 43.246992 33.852879 42.636487 33.6 42 33.6 
C 41.363513 33.6 40.753008 33.852879 40.302944 34.302944 
C 39.852879 34.753008 39.6 35.363513 39.6 36 
C 39.6 36.636487 39.852879 37.246992 40.302944 37.697056 
C 40.753008 38.147121 41.363513 38.4 42 38.4 
z
M 42 38.16 
C 42 38.16 41.427161 38.16 40.877707 37.932409 
C 40.472649 37.527351 40.067591 37.122293 39.84 36.572839 
C 39.84 36 39.84 35.427161 40.067591 34.877707 
C 40.472649 34.472649 40.877707 34.067591 41.427161 33.84 
C 42 33.84 42.572839 33.84 43.122293 34.067591 
C 43.527351 34.472649 43.932409 34.877707 44.16 35.427161 
C 44.16 36 44.16 36.572839 43.932409 37.122293 
C 43.527351 37.527351 43.122293 37.932409 42.572839 38.16 
z
M 54 38.4 
C 54.636487 38.4 55.246992 38.147121 55.697056 37.697056 
C 56.147121 37.246992 56.4 36.636487 56.4 36 
C 56.4 35.363513 56.147121 34.753008 55.697056 34.302944 
C 55.246992 33.852879 54.636487 33.6 54 33.6 
C 53.363513 33.6 52.753008 33.852879 52.302944 34.302944 
C 51.852879 34.753008 51.6 35.363513 51.6 36 
C 51.6 36.636487 51.852879 37.246992 52.302944 37.697056 
C 52.753008 38.147121 53.363513 38.4 54 38.4 
z
M 54 38.16 
C 54 38.16 53.427161 38.16 52.877707 37.932409 
C 52.472649 37.527351 52.067591 37.122293 51.84 36.572839 
C 51.84 36 51.84 35.427161 52.067591 34.877707 
C 52.472649 34.472649 52.877707 34.067591 53.427161 33.84 
C 54 33.84 54.572839 33.84 55.122293 34.067591 
C 55.527351 34.472649 55.932409 34.877707 56.16 35.427161 
C 56.16 36 56.16 36.572839 55.932409 37.122293 
C 55.527351 37.527351 55.122293 37.932409 54.572839 38.16 
z
M 66 38.4 
C 66.636487 38.4 67.246992 38.147121 67.697056 37.697056 
C 68.147121 37.246992 68.4 36.636487 68.4 36 
C 68.4 35.363513 68.147121 34.753008 67.697056 34.302944 
C 67.246992 33.852879 66.636487 33.6 66 33.6 
C 65.363513 33.6 64.753008 33.852879 64.302944 34.302944 
C 63.852879 34.753008 63.6 35.363513 63.6 36 
C 63.6 36.636487 63.852879 37.246992 64.302944 37.697056 
C 64.753008 38.147121 65.363513 38.4 66 38.4 
z
M 66 38.16 
C 66 38.16 65.427161 38.16 64.877707 37.932409 
C 64.472649 37.527351 64.067591 37.122293 63.84 36.572839 
C 63.84 36 63.84 35.427161 64.067591 34.877707 
C 64.472649 34.472649 64.877707 34.067591 65.427161 33.84 
C 66 33.84 66.572839 33.84 67.122293 34.067591 
C 67.527351 34.472649 67.932409 34.877707 68.16 35.427161 
C 68.16 36 68.16 36.572839 67.932409 37.122293 
C 67.527351 37.527351 67.122293 37.932409 66.572839 38.16 
z
M 0 26.4 
C 0.636487 26.4 1.246992 26.147121 1.697056 25.697056 
C 2.147121 25.246992 2.4 24.636487 2.4 24 
C 2.4 23.363513 2.147121 22.753008 1.697056 22.302944 
C 1.246992 21.852879 0.636487 21.6 0 21.6 
C -0.636487 21.6 -1.246992 21.852879 -1.697056 22.302944 
C -2.147121 22.753008 -2.4 23.363513 -2.4 24 
C -2.4 24.636487 -2.147121 25.246992 -1.697056 25.697056 
C -1.246992 26.147121 -0.636487 26.4 0 26.4 
z
M 0 26.16 
C 0 26.16 -0.572839 26.16 -1.122293 25.932409 
C -1.527351 25.527351 -1.932409 25.122293 -2.16 24.572839 
C -2.16 24 -2.16 23.427161 -1.932409 22.877707 
C -1.527351 22.472649 -1.122293 22.067591 -0.572839 21.84 
C 0 21.84 0.572839 21.84 1.122293 22.067591 
C 1.527351 22.472649 1.932409 22.877707 2.16 23.427161 
C 2.16 24 2.16 24.572839 1.932409 25.122293 
C 1.527351 25.527351 1.122293 25.932409 0.572839 26.16 
z
M 12 26.4 
C 12.636487 26.4 13.246992 26.147121 13.697056 25.697056 
C 14.147121 25.246992 14.4 24.636487 14.4 24 
C 14.4 23.363513 14.147121 22.753008 13.697056 22.302944 
C 13.246992 21.852879 12.636487 21.6 12 21.6 
C 11.363513 21.6 10.753008 21.852879 10.302944 22.302944 
C 9.852879 22.753008 9.6 23.363513 9.6 24 
C 9.6 24.636487 9.852879 25.246992 10.302944 25.697056 
C 10.753008 26.147121 11.363513 26.4 12 26.4 
z
M 12 26.16 
C 12 26.16 11.427161 26.16 10.877707 25.932409 
C 10.472649 25.527351 10.067591 25.122293 9.84 24.572839 
C 9.84 24 9.84 23.427161 10.067591 22.877707 
C 10.472649 22.472649 10.877707 22.067591 11.427161 21.84 
C 12 21.84 12.572839 21.84 13.122293 22.067591 
C 13.527351 22.472649 13.932409 22.877707 14.16 23.427161 
C 14.16 24 14.16 24.572839 13.932409 25.122293 
C 13.527351 25.527351 13.122293 25.932409 12.572839 26.16 
z
M 24 26.4 
C 24.636487 26.4 25.246992 26.147121 25.697056 25.697056 
C 26.147121 25.246992 26.4 24.636487 26.4 24 
C 26.4 23.363513 26.147121 22.753008 25.697056 22.302944 
C 25.246992 21.852879 24.636487 21.6 24 21.6 
C 23.363513 21.6 22.753008 21.852879 22.302944 22.302944 
C 21.852879 22.753008 21.6 23.363513 21.6 24 
C 21.6 24.636487 21.852879 25.246992 22.302944 25.697056 
C 22.753008 26.147121 23.363513 26.4 24 26.4 
z
M 24 26.16 
C 24 26.16 23.427161 26.16 22.877707 25.932409 
C 22.472649 25.527351 22.067591 25.122293 21.84 24.572839 
C 21.84 24 21.84 23.427161 22.067591 22.877707 
C 22.472649 22.472649 22.877707 22.067591 23.427161 21.84 
C 24 21.84 24.572839 21.84 25.122293 22.067591 
C 25.527351 22.472649 25.932409 22.877707 26.16 23.427161 
C 26.16 24 26.16 24.572839 25.932409 25.122293 
C 25.527351 25.527351 25.122293 25.932409 24.572839 26.16 
z
M 36 26.4 
C 36.636487 26.4 37.246992 26.147121 37.697056 25.697056 
C 38.147121 25.246992 38.4 24.636487 38.4 24 
C 38.4 23.363513 38.147121 22.753008 37.697056 22.302944 
C 37.246992 21.852879 36.636487 21.6 36 21.6 
C 35.363513 21.6 34.753008 21.852879 34.302944 22.302944 
C 33.852879 22.753008 33.6 23.363513 33.6 24 
C 33.6 24.636487 33.852879 25.246992 34.302944 25.697056 
C 34.753008 26.147121 35.363513 26.4 36 26.4 
z
M 36 26.16 
C 36 26.16 35.427161 26.16 34.877707 25.932409 
C 34.472649 25.527351 34.067591 25.122293 33.84 24.572839 
C 33.84 24 33.84 23.427161 34.067591 22.877707 
C 34.472649 22.472649 34.877707 22.067591 35.427161 21.84 
C 36 21.84 36.572839 21.84 37.122293 22.067591 
C 37.527351 22.472649 37.932409 22.877707 38.16 23.427161 
C 38.16 24 38.16 24.572839 37.932409 25.122293 
C 37.527351 25.527351 37.122293 25.932409 36.572839 26.16 
z
M 48 26.4 
C 48.636487 26.4 49.246992 26.147121 49.697056 25.697056 
C 50.147121 25.246992 50.4 24.636487 50.4 24 
C 50.4 23.363513 50.147121 22.753008 49.697056 22.302944 
C 49.246992 21.852879 48.636487 21.6 48 21.6 
C 47.363513 21.6 46.753008 21.852879 46.302944 22.302944 
C 45.852879 22.753008 45.6 23.363513 45.6 24 
C 45.6 24.636487 45.852879 25.246992 46.302944 25.697056 
C 46.753008 26.147121 47.363513 26.4 48 26.4 
z
M 48 26.16 
C 48 26.16 47.427161 26.16 46.877707 25.932409 
C 46.472649 25.527351 46.067591 25.122293 45.84 24.572839 
C 45.84 24 45.84 23.427161 46.067591 22.877707 
C 46.472649 22.472649 46.877707 22.067591 47.427161 21.84 
C 48 21.84 48.572839 21.84 49.122293 22.067591 
C 49.527351 22.472649 49.932409 22.877707 50.16 23.427161 
C 50.16 24 50.16 24.572839 49.932409 25.122293 
C 49.527351 25.527351 49.122293 25.932409 48.572839 26.16 
z
M 60 26.4 
C 60.636487 26.4 61.246992 26.147121 61.697056 25.697056 
C 62.147121 25.246992 62.4 24.636487 62.4 24 
C 62.4 23.363513 62.147121 22.753008 61.697056 22.302944 
C 61.246992 21.852879 60.636487 21.6 60 21.6 
C 59.363513 21.6 58.753008 21.852879 58.302944 22.302944 
C 57.852879 22.753008 57.6 23.363513 57.6 24 
C 57.6 24.636487 57.852879 25.246992 58.302944 25.697056 
C 58.753008 26.147121 59.363513 26.4 60 26.4 
z
M 60 26.16 
C 60 26.16 59.427161 26.16 58.877707 25.932409 
C 58.472649 25.527351 58.067591 25.122293 57.84 24.572839 
C 57.84 24 57.84 23.427161 58.067591 22.877707 
C 58.472649 22.472649 58.877707 22.067591 59.427161 21.84 
C 60 21.84 60.572839 21.84 61.122293 22.067591 
C 61.527351 22.472649 61.932409 22.877707 62.16 23.427161 
C 62.16 24 62.16 24.572839 61.932409 25.122293 
C 61.527351 25.527351 61.122293 25.932409 60.572839 26.16 
z
M 72 26.4 
C 72.636487 26.4 73.246992 26.147121 73.697056 25.697056 
C 74.147121 25.246992 74.4 24.636487 74.4 24 
C 74.4 23.363513 74.147121 22.753008 73.697056 22.302944 
C 73.246992 21.852879 72.636487 21.6 72 21.6 
C 71.363513 21.6 70.753008 21.852879 70.302944 22.302944 
C 69.852879 22.753008 69.6 23.363513 69.6 24 
C 69.6 24.636487 69.852879 25.246992 70.302944 25.697056 
C 70.753008 26.147121 71.363513 26.4 72 26.4 
z
M 72 26.16 
C 72 26.16 71.427161 26.16 70.877707 25.932409 
C 70.472649 25.527351 70.067591 25.122293 69.84 24.572839 
C 69.84 24 69.84 23.427161 70.067591 22.877707 
C 70.472649 22.472649 70.877707 22.067591 71.427161 21.84 
C 72 21.84 72.572839 21.84 73.122293 22.067591 
C 73.527351 22.472649 73.932409 22.877707 74.16 23.427161 
C 74.16 24 74.16 24.572839 73.932409 25.122293 
C 73.527351 25.527351 73.122293 25.932409 72.572839 26.16 
z
M 6 14.4 
C 6.636487 14.4 7.246992 14.147121 7.697056 13.697056 
C 8.147121 13.246992 8.4 12.636487 8.4 12 
C 8.4 11.363513 8.147121 10.753008 7.697056 10.302944 
C 7.246992 9.852879 6.636487 9.6 6 9.6 
C 5.363513 9.6 4.753008 9.852879 4.302944 10.302944 
C 3.852879 10.753008 3.6 11.363513 3.6 12 
C 3.6 12.636487 3.852879 13.246992 4.302944 13.697056 
C 4.753008 14.147121 5.363513 14.4 6 14.4 
z
M 6 14.16 
C 6 14.16 5.427161 14.16 4.877707 13.932409 
C 4.472649 13.527351 4.067591 13.122293 3.84 12.572839 
C 3.84 12 3.84 11.427161 4.067591 10.877707 
C 4.472649 10.472649 4.877707 10.067591 5.427161 9.84 
C 6 9.84 6.572839 9.84 7.122293 10.067591 
C 7.527351 10.472649 7.932409 10.877707 8.16 11.427161 
C 8.16 12 8.16 12.572839 7.932409 13.122293 
C 7.527351 13.527351 7.122293 13.932409 6.572839 14.16 
z
M 18 14.4 
C 18.636487 14.4 19.246992 14.147121 19.697056 13.697056 
C 20.147121 13.246992 20.4 12.636487 20.4 12 
C 20.4 11.363513 20.147121 10.753008 19.697056 10.302944 
C 19.246992 9.852879 18.636487 9.6 18 9.6 
C 17.363513 9.6 16.753008 9.852879 16.302944 10.302944 
C 15.852879 10.753008 15.6 11.363513 15.6 12 
C 15.6 12.636487 15.852879 13.246992 16.302944 13.697056 
C 16.753008 14.147121 17.363513 14.4 18 14.4 
z
M 18 14.16 
C 18 14.16 17.427161 14.16 16.877707 13.932409 
C 16.472649 13.527351 16.067591 13.122293 15.84 12.572839 
C 15.84 12 15.84 11.427161 16.067591 10.877707 
C 16.472649 10.472649 16.877707 10.067591 17.427161 9.84 
C 18 9.84 18.572839 9.84 19.122293 10.067591 
C 19.527351 10.472649 19.932409 10.877707 20.16 11.427161 
C 20.16 12 20.16 12.572839 19.932409 13.122293 
C 19.527351 13.527351 19.122293 13.932409 18.572839 14.16 
z
M 30 14.4 
C 30.636487 14.4 31.246992 14.147121 31.697056 13.697056 
C 32.147121 13.246992 32.4 12.636487 32.4 12 
C 32.4 11.363513 32.147121 10.753008 31.697056 10.302944 
C 31.246992 9.852879 30.636487 9.6 30 9.6 
C 29.363513 9.6 28.753008 9.852879 28.302944 10.302944 
C 27.852879 10.753008 27.6 11.363513 27.6 12 
C 27.6 12.636487 27.852879 13.246992 28.302944 13.697056 
C 28.753008 14.147121 29.363513 14.4 30 14.4 
z
M 30 14.16 
C 30 14.16 29.427161 14.16 28.877707 13.932409 
C 28.472649 13.527351 28.067591 13.122293 27.84 12.572839 
C 27.84 12 27.84 11.427161 28.067591 10.877707 
C 28.472649 10.472649 28.877707 10.067591 29.427161 9.84 
C 30 9.84 30.572839 9.84 31.122293 10.067591 
C 31.527351 10.472649 31.932409 10.877707 32.16 11.427161 
C 32.16 12 32.16 12.572839 31.932409 13.122293 
C 31.527351 13.527351 31.122293 13.932409 30.572839 14.16 
z
M 42 14.4 
C 42.636487 14.4 43.246992 14.147121 43.697056 13.697056 
C 44.147121 13.246992 44.4 12.636487 44.4 12 
C 44.4 11.363513 44.147121 10.753008 43.697056 10.302944 
C 43.246992 9.852879 42.636487 9.6 42 9.6 
C 41.363513 9.6 40.753008 9.852879 40.302944 10.302944 
C 39.852879 10.753008 39.6 11.363513 39.6 12 
C 39.6 12.636487 39.852879 13.246992 40.302944 13.697056 
C 40.753008 14.147121 41.363513 14.4 42 14.4 
z
M 42 14.16 
C 42 14.16 41.427161 14.16 40.877707 13.932409 
C 40.472649 13.527351 40.067591 13.122293 39.84 12.572839 
C 39.84 12 39.84 11.427161 40.067591 10.877707 
C 40.472649 10.472649 40.877707 10.067591 41.427161 9.84 
C 42 9.84 42.572839 9.84 43.122293 10.067591 
C 43.527351 10.472649 43.932409 10.877707 44.16 11.427161 
C 44.16 12 44.16 12.572839 43.932409 13.122293 
C 43.527351 13.527351 43.122293 13.932409 42.572839 14.16 
z
M 54 14.4 
C 54.636487 14.4 55.246992 14.147121 55.697056 13.697056 
C 56.147121 13.246992 56.4 12.636487 56.4 12 
C 56.4 11.363513 56.147121 10.753008 55.697056 10.302944 
C 55.246992 9.852879 54.636487 9.6 54 9.6 
C 53.363513 9.6 52.753008 9.852879 52.302944 10.302944 
C 51.852879 10.753008 51.6 11.363513 51.6 12 
C 51.6 12.636487 51.852879 13.246992 52.302944 13.697056 
C 52.753008 14.147121 53.363513 14.4 54 14.4 
z
M 54 14.16 
C 54 14.16 53.427161 14.16 52.877707 13.932409 
C 52.472649 13.527351 52.067591 13.122293 51.84 12.572839 
C 51.84 12 51.84 11.427161 52.067591 10.877707 
C 52.472649 10.472649 52.877707 10.067591 53.427161 9.84 
C 54 9.84 54.572839 9.84 55.122293 10.067591 
C 55.527351 10.472649 55.932409 10.877707 56.16 11.427161 
C 56.16 12 56.16 12.572839 55.932409 13.122293 
C 55.527351 13.527351 55.122293 13.932409 54.572839 14.16 
z
M 66 14.4 
C 66.636487 14.4 67.246992 14.147121 67.697056 13.697056 
C 68.147121 13.246992 68.4 12.636487 68.4 12 
C 68.4 11.363513 68.147121 10.753008 67.697056 10.302944 
C 67.246992 9.852879 66.636487 9.6 66 9.6 
C 65.363513 9.6 64.753008 9.852879 64.302944 10.302944 
C 63.852879 10.753008 63.6 11.363513 63.6 12 
C 63.6 12.636487 63.852879 13.246992 64.302944 13.697056 
C 64.753008 14.147121 65.363513 14.4 66 14.4 
z
M 66 14.16 
C 66 14.16 65.427161 14.16 64.877707 13.932409 
C 64.472649 13.527351 64.067591 13.122293 63.84 12.572839 
C 63.84 12 63.84 11.427161 64.067591 10.877707 
C 64.472649 10.472649 64.877707 10.067591 65.427161 9.84 
C 66 9.84 66.572839 9.84 67.122293 10.067591 
C 67.527351 10.472649 67.932409 10.877707 68.16 11.427161 
C 68.16 12 68.16 12.572839 67.932409 13.122293 
C 67.527351 13.527351 67.122293 13.932409 66.572839 14.16 
z
M 0 2.4 
C 0.636487 2.4 1.246992 2.147121 1.697056 1.697056 
C 2.147121 1.246992 2.4 0.636487 2.4 0 
C 2.4 -0.636487 2.147121 -1.246992 1.697056 -1.697056 
C 1.246992 -2.147121 0.636487 -2.4 0 -2.4 
C -0.636487 -2.4 -1.246992 -2.147121 -1.697056 -1.697056 
C -2.147121 -1.246992 -2.4 -0.636487 -2.4 0 
C -2.4 0.636487 -2.147121 1.246992 -1.697056 1.697056 
C -1.246992 2.147121 -0.636487 2.4 0 2.4 
z
M 0 2.16 
C 0 2.16 -0.572839 2.16 -1.122293 1.932409 
C -1.527351 1.527351 -1.932409 1.122293 -2.16 0.572839 
C -2.16 0 -2.16 -0.572839 -1.932409 -1.122293 
C -1.527351 -1.527351 -1.122293 -1.932409 -0.572839 -2.16 
C 0 -2.16 0.572839 -2.16 1.122293 -1.932409 
C 1.527351 -1.527351 1.932409 -1.122293 2.16 -0.572839 
C 2.16 0 2.16 0.572839 1.932409 1.122293 
C 1.527351 1.527351 1.122293 1.932409 0.572839 2.16 
z
M 12 2.4 
C 12.636487 2.4 13.246992 2.147121 13.697056 1.697056 
C 14.147121 1.246992 14.4 0.636487 14.4 0 
C 14.4 -0.636487 14.147121 -1.246992 13.697056 -1.697056 
C 13.246992 -2.147121 12.636487 -2.4 12 -2.4 
C 11.363513 -2.4 10.753008 -2.147121 10.302944 -1.697056 
C 9.852879 -1.246992 9.6 -0.636487 9.6 0 
C 9.6 0.636487 9.852879 1.246992 10.302944 1.697056 
C 10.753008 2.147121 11.363513 2.4 12 2.4 
z
M 12 2.16 
C 12 2.16 11.427161 2.16 10.877707 1.932409 
C 10.472649 1.527351 10.067591 1.122293 9.84 0.572839 
C 9.84 0 9.84 -0.572839 10.067591 -1.122293 
C 10.472649 -1.527351 10.877707 -1.932409 11.427161 -2.16 
C 12 -2.16 12.572839 -2.16 13.122293 -1.932409 
C 13.527351 -1.527351 13.932409 -1.122293 14.16 -0.572839 
C 14.16 0 14.16 0.572839 13.932409 1.122293 
C 13.527351 1.527351 13.122293 1.932409 12.572839 2.16 
z
M 24 2.4 
C 24.636487 2.4 25.246992 2.147121 25.697056 1.697056 
C 26.147121 1.246992 26.4 0.636487 26.4 0 
C 26.4 -0.636487 26.147121 -1.246992 25.697056 -1.697056 
C 25.246992 -2.147121 24.636487 -2.4 24 -2.4 
C 23.363513 -2.4 22.753008 -2.147121 22.302944 -1.697056 
C 21.852879 -1.246992 21.6 -0.636487 21.6 0 
C 21.6 0.636487 21.852879 1.246992 22.302944 1.697056 
C 22.753008 2.147121 23.363513 2.4 24 2.4 
z
M 24 2.16 
C 24 2.16 23.427161 2.16 22.877707 1.932409 
C 22.472649 1.527351 22.067591 1.122293 21.84 0.572839 
C 21.84 0 21.84 -0.572839 22.067591 -1.122293 
C 22.472649 -1.527351 22.877707 -1.932409 23.427161 -2.16 
C 24 -2.16 24.572839 -2.16 25.122293 -1.932409 
C 25.527351 -1.527351 25.932409 -1.122293 26.16 -0.572839 
C 26.16 0 26.16 0.572839 25.932409 1.122293 
C 25.527351 1.527351 25.122293 1.932409 24.572839 2.16 
z
M 36 2.4 
C 36.636487 2.4 37.246992 2.147121 37.697056 1.697056 
C 38.147121 1.246992 38.4 0.636487 38.4 0 
C 38.4 -0.636487 38.147121 -1.246992 37.697056 -1.697056 
C 37.246992 -2.147121 36.636487 -2.4 36 -2.4 
C 35.363513 -2.4 34.753008 -2.147121 34.302944 -1.697056 
C 33.852879 -1.246992 33.6 -0.636487 33.6 0 
C 33.6 0.636487 33.852879 1.246992 34.302944 1.697056 
C 34.753008 2.147121 35.363513 2.4 36 2.4 
z
M 36 2.16 
C 36 2.16 35.427161 2.16 34.877707 1.932409 
C 34.472649 1.527351 34.067591 1.122293 33.84 0.572839 
C 33.84 0 33.84 -0.572839 34.067591 -1.122293 
C 34.472649 -1.527351 34.877707 -1.932409 35.427161 -2.16 
C 36 -2.16 36.572839 -2.16 37.122293 -1.932409 
C 37.527351 -1.527351 37.932409 -1.122293 38.16 -0.572839 
C 38.16 0 38.16 0.572839 37.932409 1.122293 
C 37.527351 1.527351 37.122293 1.932409 36.572839 2.16 
z
M 48 2.4 
C 48.636487 2.4 49.246992 2.147121 49.697056 1.697056 
C 50.147121 1.246992 50.4 0.636487 50.4 0 
C 50.4 -0.636487 50.147121 -1.246992 49.697056 -1.697056 
C 49.246992 -2.147121 48.636487 -2.4 48 -2.4 
C 47.363513 -2.4 46.753008 -2.147121 46.302944 -1.697056 
C 45.852879 -1.246992 45.6 -0.636487 45.6 0 
C 45.6 0.636487 45.852879 1.246992 46.302944 1.697056 
C 46.753008 2.147121 47.363513 2.4 48 2.4 
z
M 48 2.16 
C 48 2.16 47.427161 2.16 46.877707 1.932409 
C 46.472649 1.527351 46.067591 1.122293 45.84 0.572839 
C 45.84 0 45.84 -0.572839 46.067591 -1.122293 
C 46.472649 -1.527351 46.877707 -1.932409 47.427161 -2.16 
C 48 -2.16 48.572839 -2.16 49.122293 -1.932409 
C 49.527351 -1.527351 49.932409 -1.122293 50.16 -0.572839 
C 50.16 0 50.16 0.572839 49.932409 1.122293 
C 49.527351 1.527351 49.122293 1.932409 48.572839 2.16 
z
M 60 2.4 
C 60.636487 2.4 61.246992 2.147121 61.697056 1.697056 
C 62.147121 1.246992 62.4 0.636487 62.4 0 
C 62.4 -0.636487 62.147121 -1.246992 61.697056 -1.697056 
C 61.246992 -2.147121 60.636487 -2.4 60 -2.4 
C 59.363513 -2.4 58.753008 -2.147121 58.302944 -1.697056 
C 57.852879 -1.246992 57.6 -0.636487 57.6 0 
C 57.6 0.636487 57.852879 1.246992 58.302944 1.697056 
C 58.753008 2.147121 59.363513 2.4 60 2.4 
z
M 60 2.16 
C 60 2.16 59.427161 2.16 58.877707 1.932409 
C 58.472649 1.527351 58.067591 1.122293 57.84 0.572839 
C 57.84 0 57.84 -0.572839 58.067591 -1.122293 
C 58.472649 -1.527351 58.877707 -1.932409 59.427161 -2.16 
C 60 -2.16 60.572839 -2.16 61.122293 -1.932409 
C 61.527351 -1.527351 61.932409 -1.122293 62.16 -0.572839 
C 62.16 0 62.16 0.572839 61.932409 1.122293 
C 61.527351 1.527351 61.122293 1.932409 60.572839 2.16 
z
M 72 2.4 
C 72.636487 2.4 73.246992 2.147121 73.697056 1.697056 
C 74.147121 1.246992 74.4 0.636487 74.4 0 
C 74.4 -0.636487 74.147121 -1.246992 73.697056 -1.697056 
C 73.246992 -2.147121 72.636487 -2.4 72 -2.4 
C 71.363513 -2.4 70.753008 -2.147121 70.302944 -1.697056 
C 69.852879 -1.246992 69.6 -0.636487 69.6 0 
C 69.6 0.636487 69.852879 1.246992 70.302944 1.697056 
C 70.753008 2.147121 71.363513 2.4 72 2.4 
z
M 72 2.16 
C 72 2.16 71.427161 2.16 70.877707 1.932409 
C 70.472649 1.527351 70.067591 1.122293 69.84 0.572839 
C 69.84 0 69.84 -0.572839 70.067591 -1.122293 
C 70.472649 -1.527351 70.877707 -1.932409 71.427161 -2.16 
C 72 -2.16 72.572839 -2.16 73.122293 -1.932409 
C 73.527351 -1.527351 73.932409 -1.122293 74.16 -0.572839 
C 74.16 0 74.16 0.572839 73.932409 1.122293 
C 73.527351 1.527351 73.122293 1.932409 72.572839 2.16 
z
" style="fill:#eeeeee;stroke:#eeeeee;stroke-linecap:butt;stroke-linejoin:miter;stroke-width:1.0;"/>
  </pattern>
 </defs>
</svg>
